<?xml version="1.0" encoding="iso-8859-1"?>
<!-- Generator: Adobe Illustrator 19.0.0, SVG Export Plug-In . SVG Version: 6.00 Build 0)  -->
<svg version="1.1" id="Capa_1" xmlns="http://www.w3.org/2000/svg" xmlns:xlink="http://www.w3.org/1999/xlink" x="0px" y="0px"
	 viewBox="0 0 511.998 511.998" style="enable-background:new 0 0 511.998 511.998;" xml:space="preserve">
<g>
	<polygon style="fill:#54BA9D;" points="55.998,75.999 256,75.999 456,75.999 456,35.998 55.998,35.998 	"/>
	<g>
		<polygon style="fill:#986E62;" points="256,155.999 256,75.999 55.998,75.999 10,155.999 		"/>
		<polygon style="fill:#986E62;" points="256,75.999 256,155.999 501.998,155.999 456,75.999 		"/>
		<polygon style="fill:#986E62;" points="256,155.999 10,155.999 10,195.998 55.998,195.998 98.855,195.998 141.711,195.998 
			206,195.998 256,195.998 		"/>
		<polygon style="fill:#986E62;" points="256,155.999 256,195.998 270.283,195.998 313.141,195.998 356,195.998 456,195.998 
			501.998,195.998 501.998,155.999 		"/>
	</g>
	<path style="fill:#FF9D21;" d="M205.998,246.001L205.998,246.001L205.998,246.001z M205.998,425.998L205.998,425.998
		L205.998,425.998z M313.141,195.998H256h-50V246c16.5,0,29.998,13.499,29.998,29.999V286v65.358v44.641
		c0,16.499-13.498,29.999-29.998,29.999V476h73.203L356,475.998V376V275.999v-80.001H313.141z"/>
	<path style="fill:#FF5A5A;" d="M235.998,275.999c0-16.5-13.498-29.999-30-29.999c-16.5,0-30,13.499-30,29.999v44.641l60-34.64
		V275.999z"/>
	<polygon style="fill:#FFDAAE;" points="235.998,286 175.998,320.64 175.998,386 235.998,351.358 	"/>
	<path style="fill:#96C8EB;" d="M235.998,351.358l-60,34.642v10c0,16.499,13.5,29.999,30.002,29.999
		c16.5,0,29.998-13.499,29.998-29.999V351.358z"/>
	<path style="fill:#FF9D21;" d="M206,246.001L206,246.001L206,246.001z M206,425.998L206,425.998L206,425.998z M175.998,386v-65.36
		v-44.641c0-16.5,13.5-29.999,30.002-29.999v-50.002h-64.289H98.855H55.998v280.002H206v-50.002
		c-16.502,0-30.002-13.499-30.002-29.999V386z"/>
	<g>
		<rect x="356" y="195.999" style="fill:#96C8EB;" width="100" height="80"/>
		<polygon style="fill:#96C8EB;" points="456,276 356,275.999 356,376 356,475.998 452.799,476 456,476 		"/>
	</g>
</g>
<g>
	<path style="fill:#000001;" d="M511.992,155.899c-0.002-0.215-0.016-0.431-0.033-0.646c-0.008-0.119-0.012-0.239-0.025-0.356
		c-0.021-0.19-0.055-0.38-0.086-0.57c-0.025-0.143-0.045-0.286-0.074-0.426c-0.031-0.146-0.074-0.29-0.111-0.434
		c-0.049-0.181-0.094-0.363-0.15-0.541c-0.033-0.104-0.076-0.205-0.113-0.308c-0.076-0.214-0.154-0.427-0.246-0.635
		c-0.035-0.081-0.078-0.16-0.115-0.241c-0.105-0.223-0.215-0.444-0.336-0.658c-0.012-0.022-0.022-0.046-0.035-0.069L466,73.326
		v-37.33c0-5.523-4.478-10-10-10H56c-5.523,0-10,4.477-10,10v37.333L1.33,151.016c-0.012,0.023-0.021,0.046-0.035,0.069
		c-0.121,0.214-0.228,0.435-0.334,0.658c-0.039,0.081-0.082,0.16-0.117,0.241c-0.09,0.208-0.17,0.421-0.246,0.635
		c-0.037,0.103-0.078,0.204-0.113,0.308c-0.057,0.177-0.101,0.359-0.148,0.541c-0.039,0.145-0.08,0.288-0.111,0.434
		c-0.031,0.141-0.051,0.285-0.074,0.428c-0.033,0.189-0.066,0.378-0.088,0.568c-0.012,0.118-0.018,0.239-0.025,0.358
		c-0.016,0.215-0.031,0.43-0.033,0.645c0,0.033-0.004,0.065-0.004,0.098v40.001c0,5.523,4.477,10,10,10H46v260h-7.033
		c-5.522,0-10,4.477-10,10s4.478,10,10,10h16.994c0.014,0,0.025,0.002,0.039,0.002h396.801H456h17.031c5.523,0,10-4.477,10-10
		s-4.477-10-10-10H466V205.998h35.998c5.522,0,10-4.477,10-10v-40.001C511.998,155.964,511.992,155.932,511.992,155.899z
		 M61.783,85.999H246v59.998H27.285L61.783,85.999z M266,85.999h184.215l34.496,59.998H266V85.999z M65.998,45.996h380v20.003h-380
		L65.998,45.996L65.998,45.996z M20,165.997h226v20.001H20V165.997z M270.283,225.999c5.523,0,10-4.477,10-10v-10.001h22.857v10.001
		c0,5.523,4.479,10,10,10c5.523,0,10-4.477,10-10v-10.001H346V466H216v-31.268c17.232-4.452,29.998-20.129,29.998-38.733v-120
		c0-18.603-12.766-34.28-29.998-38.732v-31.269h44.283v10.001C260.283,221.522,264.762,225.999,270.283,225.999z M366,466v-80h10
		c5.523,0,10-4.477,10-10s-4.477-10-10-10h-10v-80.001L446,286v180H366z M206,256c11.027,0,19.998,8.971,19.998,19.999v4.228
		l-40,23.093v-27.321C185.998,264.971,194.971,256,206,256z M185.998,326.413l40-23.093v42.265l-40,23.095V326.413z
		 M185.998,391.773l40-23.095v27.321c0,11.027-8.971,19.999-19.998,19.999h-0.002c-11.027,0-20-8.971-20-19.999V391.773z
		 M88.855,205.998v10.001c0,5.523,4.477,10,10,10c5.521,0,10-4.477,10-10v-10.001h22.856v10.001c0,5.523,4.479,10,10,10
		c5.523,0,10-4.477,10-10v-10.001H196v31.268c-17.234,4.451-30.002,20.129-30.002,38.733v120c0,18.604,12.768,34.281,30.002,38.733
		V466H65.998V205.998H88.855z M446,266l-80-0.001v-60.001h80V266z M491.998,185.998H266v-20.001h225.998V185.998z"/>
	<path style="fill:#000001;" d="M10.234,465.998H10c-5.523,0-10,4.477-10,10s4.477,10,10,10h0.234c5.522,0,10-4.477,10-10
		C20.234,470.475,15.756,465.998,10.234,465.998z"/>
	<path style="fill:#000001;" d="M501.998,466h-0.236c-5.523,0-10,4.477-10,10s4.477,10,10,10h0.236c5.522,0,10-4.477,10-10
		S507.52,466,501.998,466z"/>
</g>
<g>
</g>
<g>
</g>
<g>
</g>
<g>
</g>
<g>
</g>
<g>
</g>
<g>
</g>
<g>
</g>
<g>
</g>
<g>
</g>
<g>
</g>
<g>
</g>
<g>
</g>
<g>
</g>
<g>
</g>
</svg>
