<?xml version="1.0" encoding="iso-8859-1"?>
<!-- Generator: Adobe Illustrator 19.0.0, SVG Export Plug-In . SVG Version: 6.00 Build 0)  -->
<svg version="1.1" id="Capa_1" xmlns="http://www.w3.org/2000/svg" xmlns:xlink="http://www.w3.org/1999/xlink" x="0px" y="0px"
	 viewBox="0 0 512 512" style="enable-background:new 0 0 512 512;" xml:space="preserve">
<g>
	<path style="fill:#FFDAAE;" d="M375.998,342.003v-80.005v-40.001v-29.999v-41.996L256,70l-120,80.003v41.996v29.999v40.001v80.005
		V462v40h60V401.998c0-33,26.998-59.999,60.002-59.999c33,0,59.997,27,59.997,59.999V502h59.999v-40L375.998,342.003
		L375.998,342.003z M256,161.998c16.568,0,30,13.432,30,30.001c0,16.567-13.432,29.999-30,29.999
		c-16.569,0-30.002-13.432-30.002-29.999C225.998,175.429,239.431,161.998,256,161.998z"/>
	<circle style="fill:#96C8EB;" cx="256" cy="192" r="30"/>
	<g>
		<path style="fill:#986E62;" d="M315.999,401.998c0-33-26.997-59.999-59.999-59.999V502h59.999V401.998z"/>
		<path style="fill:#986E62;" d="M256,502l0.002-160.001c-33.004,0-60.002,27-60.002,59.999V502H256z"/>
	</g>
	<g>
		<path style="fill:#96C8EB;" d="M93.002,402v-40c0-11.001-9-20.001-20.002-20.001s-20.001,9-20.001,20.001v40H93.002z"/>
		<path style="fill:#96C8EB;" d="M419,362v40h40v-40c0-11.001-8.998-20.001-20.001-20.001C427.998,341.999,419,350.999,419,362z"/>
	</g>
	<g>
		<path style="fill:#BF9A94;" d="M419,402v-40c0-11.001,8.998-20.001,19.999-20.001c11.003,0,20.001,9,20.001,20.001v40H419L419,402
			z M375.998,261.998v80.005V462v40H502V261.998H375.998z"/>
		<path style="fill:#BF9A94;" d="M136,342.003v-80.005H10V502h126v-40V342.003L136,342.003z M73,341.999
			c11.002,0,20.002,9,20.002,20.001v40H52.999v-40C52.999,350.999,61.998,341.999,73,341.999z"/>
	</g>
	<g>
		<rect x="10" y="222" style="fill:#FF5A5A;" width="126" height="40"/>
		<rect x="376" y="222" style="fill:#FF5A5A;" width="126" height="40"/>
	</g>
</g>
<g>
	<path style="fill:#000001;" d="M53.234,452h-0.235c-5.523,0-10,4.477-10,10s4.477,10,10,10h0.235c5.524,0,10-4.477,10-10
		S58.758,452,53.234,452z"/>
	<path style="fill:#000001;" d="M52.999,412h40.003c5.522,0,10-4.477,10-10v-40c0-16.542-13.459-30.001-30.002-30.001
		S42.999,345.458,42.999,362v40C42.999,407.523,47.476,412,52.999,412z M62.999,362c0-5.515,4.486-10.001,10.001-10.001
		S83.002,356.485,83.002,362v30H62.999V362z"/>
	<path style="fill:#000001;" d="M459,452h-0.236c-5.522,0-10,4.477-10,10s4.478,10,10,10H459c5.523,0,10-4.477,10-10
		S464.523,452,459,452z"/>
	<path style="fill:#000001;" d="M419,412h40c5.523,0,10-4.477,10-10v-40c0-16.542-13.459-30.001-30.001-30.001S409,345.457,409,362
		v40C409,407.523,413.477,412,419,412z M429,362c0-5.515,4.485-10.001,9.999-10.001c5.515,0,10.001,4.486,10.001,10.001v30h-20V362z
		"/>
	<path style="fill:#000001;" d="M246,230.731v36.55c0,5.523,4.476,10,10,10c5.522,0,10-4.477,10-10v-36.549
		c17.232-4.451,30-20.129,30-38.733c0-22.057-17.943-40.001-39.998-40.001c-22.057,0-40.001,17.944-40.001,40.001
		C216.001,210.601,228.767,226.279,246,230.731z M256.002,171.998c11.027,0,19.998,8.972,19.998,20.001
		c0,11.027-8.971,19.999-19.998,19.999c-11.029,0-20.001-8.971-20.001-19.999C236.001,180.97,244.973,171.998,256.002,171.998z"/>
	<path style="fill:#000001;" d="M256,286.012c-5.524,0-10,4.477-10,10v0.236c0,5.523,4.476,10,10,10c5.522,0,10-4.477,10-10v-0.236
		C266,290.49,261.522,286.012,256,286.012z"/>
	<path style="fill:#000001;" d="M502,211.997H385.998v-61.995c0-3.343-1.67-6.466-4.452-8.32L266,64.648V39.999h6.164
		c5.522,0,10-4.477,10-10s-4.478-10-10-10H266V10c0-5.523-4.478-10-10-10c-5.524,0-10,4.477-10,10v9.999h-6.164
		c-5.523,0-10,4.477-10,10s4.477,10,10,10H246v24.649l-115.547,77.034c-2.781,1.854-4.453,4.977-4.453,8.32v61.995H10
		c-5.524,0-10,4.477-10,10v40.001V502c0,5.523,4.476,10,10,10h126h60h119.999h59.999H502c5.522,0,10-4.477,10-10V261.998v-40.001
		C512,216.474,507.522,211.997,502,211.997z M492,231.997v20H385.998v-20H492z M20,231.997h106v20H20V231.997z M20,271.998h106V452
		H81.967c-5.523,0-10,4.477-10,10s4.477,10,10,10H126v20H20V271.998z M146,352.003h10c5.522,0,10-4.477,10-10s-4.478-10-10-10h-10
		v-70.005v-40.001v-19.999h10c5.522,0,10-4.477,10-10s-4.478-10-10-10h-10v-26.645l110-73.336l109.998,73.336v26.645H356
		c-5.523,0-10,4.477-10,10s4.477,10,10,10h9.998v19.999v40.001v70.005H356c-5.523,0-10,4.477-10,10s4.477,10,10,10h9.998V492
		h-39.999v-90.002c0-38.598-31.401-69.999-69.999-69.999s-70,31.401-70,69.999V492h-40V352.003z M206,401.998
		c0-24.145,17.205-44.346,40-48.993V492h-40V401.998z M266,492V353.005c22.794,4.645,39.999,24.847,39.999,48.993V492H266z M492,492
		H385.998v-20h44.035c5.522,0,10-4.477,10-10s-4.478-10-10-10h-44.035V271.998H492V492z"/>
</g>
<g>
</g>
<g>
</g>
<g>
</g>
<g>
</g>
<g>
</g>
<g>
</g>
<g>
</g>
<g>
</g>
<g>
</g>
<g>
</g>
<g>
</g>
<g>
</g>
<g>
</g>
<g>
</g>
<g>
</g>
</svg>
