<?xml version="1.0" encoding="iso-8859-1"?>
<!-- Generator: Adobe Illustrator 19.0.0, SVG Export Plug-In . SVG Version: 6.00 Build 0)  -->
<svg version="1.1" id="Capa_1" xmlns="http://www.w3.org/2000/svg" xmlns:xlink="http://www.w3.org/1999/xlink" x="0px" y="0px"
	 viewBox="0 0 511.998 511.998" style="enable-background:new 0 0 511.998 511.998;" xml:space="preserve">
<g>
	<polygon style="fill:#986E62;" points="59.199,75.997 452.797,75.997 456,75.997 456,35.997 55.998,35.997 55.998,75.997 	"/>
	<g>
		<polygon style="fill:#54BA9D;" points="501.998,155.996 456,75.997 55.998,75.997 10,155.996 		"/>
		<polygon style="fill:#54BA9D;" points="501.998,155.996 10,155.996 10,195.999 55.998,195.999 356,195.999 456,195.999 
			501.998,195.999 		"/>
	</g>
	<path style="fill:#FFDAAE;" d="M356,195.999H55.998v280h223.205L356,475.997V275.999V195.999L356,195.999z M245.998,275.999H266
		c11,0,19.998,8.999,19.998,20c0,11.002-8.998,19.999-19.998,19.999h-20.002c0,22.001-17.998,40-39.998,40h-20.002
		c-22,0-40-17.999-40-40v-39.999H245.998z"/>
	<g>
		<rect x="356" y="195.999" style="fill:#96C8EB;" width="100" height="80"/>
		<polygon style="fill:#96C8EB;" points="456,275.999 356,275.999 356,475.997 452.799,475.999 456,475.999 		"/>
	</g>
	<path style="fill:#FFDAAE;" d="M285.998,295.999c0-11.001-8.998-20-19.998-20h-20.002v39.999H266
		C277,315.998,285.998,307.001,285.998,295.999z"/>
	<path style="fill:#986E62;" d="M245.998,315.998v-39.999h-100v39.999c0,22.001,18,40,40,40H206
		C228,355.998,245.998,337.999,245.998,315.998z"/>
</g>
<g>
	<path style="fill:#000001;" d="M511.992,155.897c-0.002-0.219-0.016-0.437-0.033-0.654c-0.008-0.115-0.012-0.232-0.025-0.346
		c-0.021-0.199-0.057-0.398-0.09-0.596c-0.023-0.133-0.041-0.267-0.068-0.398c-0.035-0.16-0.082-0.319-0.123-0.479
		c-0.045-0.165-0.086-0.331-0.137-0.493c-0.041-0.123-0.09-0.244-0.135-0.365c-0.07-0.193-0.141-0.387-0.223-0.574
		c-0.045-0.102-0.098-0.203-0.147-0.305c-0.096-0.199-0.193-0.398-0.301-0.59c-0.016-0.029-0.027-0.059-0.045-0.088l-44.668-77.687
		V35.997c0-5.523-4.478-10-10-10h-400c-5.523,0-10,4.477-10,10v37.33L1.33,151.011c-0.016,0.029-0.027,0.059-0.045,0.088
		c-0.107,0.191-0.205,0.391-0.301,0.59c-0.049,0.102-0.102,0.202-0.146,0.305c-0.082,0.188-0.152,0.381-0.223,0.574
		c-0.045,0.121-0.094,0.242-0.133,0.365c-0.053,0.162-0.094,0.328-0.137,0.493c-0.043,0.159-0.09,0.318-0.123,0.479
		c-0.027,0.132-0.047,0.266-0.068,0.398c-0.035,0.198-0.07,0.396-0.092,0.595c-0.012,0.113-0.016,0.23-0.025,0.347
		c-0.016,0.218-0.031,0.436-0.033,0.653c0,0.033-0.004,0.065-0.004,0.099v40.001c0,5.522,4.477,10,10,10h35.998v260h-7.033
		c-5.522,0-10,4.478-10,10c0,5.523,4.478,10,10,10h16.994c0.014,0,0.025,0.002,0.039,0.002h396.801H456h17.031
		c5.523,0,10-4.478,10-10s-4.477-10-10-10H466V205.997h35.998c5.522,0,10-4.478,10-10v-40.001
		C511.998,155.964,511.992,155.931,511.992,155.897z M61.783,85.997H246v59.999H27.285L61.783,85.997z M266,85.997h184.215
		l34.498,59.999H266V85.997z M65.998,45.997h380v20h-380L65.998,45.997L65.998,45.997z M20,165.996h226v20.001H20V165.996z
		 M88.855,205.997v10.001c0,5.522,4.477,10,10,10c5.521,0,10-4.478,10-10v-10.001h22.856v10.001c0,5.522,4.479,10,10,10
		c5.523,0,10-4.478,10-10v-10.001h22.857v10.001c0,5.522,4.477,10,10,10c5.521,0,10-4.478,10-10v-10.001h22.859v10.001
		c0,5.522,4.477,10,10,10c5.521,0,10-4.478,10-10v-10.001h18.533c0.014,0,0.025,0.002,0.039,0.002c0.012,0,0.025-0.002,0.039-0.002
		h4.244v10.001c0,5.522,4.478,10,10,10c5.523,0,10-4.478,10-10v-10.001h22.857v10.001c0,5.522,4.479,10,10,10
		c5.523,0,10-4.478,10-10v-10.001H346v260.002H65.998V205.997H88.855z M366,465.999v-80h10c5.523,0,10-4.478,10-10s-4.477-10-10-10
		h-10v-80h80v180H366z M446,265.999h-80v-60.002h80V265.999z M491.998,185.997H266v-20.001h225.998V185.997z"/>
	<path style="fill:#000001;" d="M10.234,465.997H10c-5.523,0-10,4.478-10,10c0,5.523,4.477,10,10,10h0.234c5.522,0,10-4.477,10-10
		C20.234,470.475,15.756,465.997,10.234,465.997z"/>
	<path style="fill:#000001;" d="M185.998,365.998H206c24.145,0,44.346-17.205,48.992-40H266c16.541,0,29.998-13.457,29.998-29.999
		s-13.457-30-29.998-30h-20.002h-100c-5.521,0-10,4.478-10,10v39.999C135.998,343.568,158.428,365.998,185.998,365.998z
		 M275.998,295.999c0,5.514-4.484,9.999-9.998,9.999h-10.002v-19.999H266C271.514,285.999,275.998,290.485,275.998,295.999z
		 M155.998,285.999h80v29.999c0,16.542-13.457,30-29.998,30h-20.002c-16.541,0-30-13.458-30-30V285.999z"/>
	<path style="fill:#000001;" d="M501.998,465.999h-0.236c-5.523,0-10,4.478-10,10s4.477,10,10,10h0.236c5.522,0,10-4.478,10-10
		S507.52,465.999,501.998,465.999z"/>
	<path style="fill:#000001;" d="M266,385.999h-0.236c-5.523,0-10,4.478-10,10s4.477,10,10,10H266c5.521,0,10-4.478,10-10
		S271.521,385.999,266,385.999z"/>
	<path style="fill:#000001;" d="M237.033,385.996h-71.035c-5.523,0-10,4.478-10,10s4.477,10,10,10h71.035c5.523,0,10-4.478,10-10
		S242.557,385.996,237.033,385.996z"/>
</g>
<g>
</g>
<g>
</g>
<g>
</g>
<g>
</g>
<g>
</g>
<g>
</g>
<g>
</g>
<g>
</g>
<g>
</g>
<g>
</g>
<g>
</g>
<g>
</g>
<g>
</g>
<g>
</g>
<g>
</g>
</svg>
