<svg height="512pt" viewBox="0 -26 512 512" width="512pt" xmlns="http://www.w3.org/2000/svg"><path d="m164 10.003906v40h288.796875v-40zm0 0" fill="#ff9d21" fill-rule="evenodd"/><path d="m452.796875 50.003906h-78.714844l29.519531 96.957032v24.597656c0 27.171875 22.023438 49.199218 49.199219 49.199218s49.199219-22.027343 49.199219-49.199218v-24.597656zm0 0" fill="#54ba9d" fill-rule="evenodd"/><path d="m403.601562 146.960938-29.519531-96.957032h-78.722656l9.839844 96.957032v24.597656c0 27.171875 22.027343 49.199218 49.199219 49.199218 27.175781 0 49.199218-22.027343 49.199218-49.199218v-24.597656zm0 0" fill="#986e62" fill-rule="evenodd"/><path d="m255.800781 171.558594c0 18.25 9.941407 34.164062 24.699219 42.660156 14.753906-8.496094 24.699219-24.410156 24.699219-42.660156v-24.597656l-9.839844-96.957032h-29.71875l-9.84375 96.957032v24.597656zm0 0" fill="#54ba9d" fill-rule="evenodd"/><path d="m157.398438 171.558594c0 18.25 9.941406 34.164062 24.699218 42.660156 14.757813-8.496094 24.699219-24.410156 24.699219-42.660156v-24.597656l9.84375-96.957032h-29.722656l-29.519531 96.957032zm0 0" fill="#986e62" fill-rule="evenodd"/><path d="m59 171.558594c0 18.25 9.941406 34.164062 24.699219 42.660156 14.757812-8.496094 24.703125-24.410156 24.703125-42.660156v-24.597656l29.515625-96.957032h-29.71875l-49.199219 96.957032zm0 0" fill="#54ba9d" fill-rule="evenodd"/><g fill="#ff9d21"><path d="m353.800781 220.757812c.101563 0 .199219-.007812.300781-.007812-27.035156-.164062-48.902343-22.121094-48.902343-49.191406 0 1.820312-.105469 3.613281-.300781 5.382812 2.683593 24.640625 23.550781 43.816406 48.902343 43.816406zm0 0"/><path d="m255.402344 220.757812c.101562 0 .199218-.007812.296875-.007812-27.035157-.164062-48.898438-22.121094-48.898438-49.191406 0 1.820312-.105469 3.613281-.300781 5.382812 2.683594 24.640625 23.546875 43.816406 48.902344 43.816406zm0 0"/><path d="m452.199219 220.757812c.101562 0 .199219-.007812.300781-.007812-27.035156-.164062-48.898438-22.121094-48.898438-49.191406 0 1.824218-.109374 3.621094-.300781 5.394531 2.6875 24.632813 23.550781 43.804687 48.898438 43.804687zm0 0"/><path d="m403.300781 176.953125c-.195312-1.769531-.300781-3.570313-.300781-5.394531 0 27.074218-21.867188 49.027344-48.898438 49.191406.101563 0 .199219.007812.296876.007812 25.351562 0 46.214843-19.171874 48.902343-43.804687zm0 0"/><path d="m304.898438 176.941406c-.191407-1.769531-.296876-3.5625-.296876-5.382812 0 27.070312-21.867187 49.027344-48.902343 49.191406.101562 0 .199219.007812.300781.007812 25.351562 0 46.21875-19.175781 48.898438-43.816406zm0 0"/><path d="m206.5 176.941406c-.191406-1.769531-.296875-3.5625-.296875-5.382812 0 27.070312-21.867187 49.027344-48.902344 49.191406.101563 0 .199219.007812.300781.007812 25.351563 0 46.214844-19.175781 48.898438-43.816406zm0 0"/><path d="m332.800781 270.003906v180h80v-180zm0 0"/><path d="m452.5 220.75c-.097656 0-.199219.007812-.300781.007812-25.347657 0-46.210938-19.171874-48.898438-43.804687-2.6875 24.632813-23.550781 43.804687-48.902343 43.804687-.097657 0-.199219-.007812-.296876-.007812-.101562 0-.199218.007812-.300781.007812-25.351562 0-46.21875-19.175781-48.902343-43.816406-2.679688 24.640625-23.546876 43.816406-48.898438 43.816406-.101562 0-.199219-.007812-.300781-.007812-.097657 0-.195313.007812-.296875.007812-25.355469 0-46.21875-19.175781-48.902344-43.816406-2.683594 24.640625-23.550781 43.816406-48.898438 43.816406-.101562 0-.203124-.007812-.300781-.007812-.101562 0-.199219.007812-.300781.007812v49.65625c17.210938 2.332032 33.429688 14.816407 39 39.59375 10.441406-46.457031 58.3125-49.699218 80-23.847656v103.84375h-119v60h175.800781v-180h80v180h40v-229.246094c-.101562 0-.199219-.007812-.300781-.007812zm0 0"/></g><path d="m169.769531 274.199219c-5.972656 2.730469-11.402343 6.753906-15.769531 11.960937v63.945313c5.398438.363281 10.75 1.707031 15.769531 4.089843 11.996094 5.691407 22.078125 17.328126 26.230469 35.808594v-79.996094c-4.152344-18.484374-14.234375-30.117187-26.230469-35.808593zm0 0" fill="#ffdaae"/><path d="m276 286.160156c-21.6875-25.855468-69.558594-22.609375-80 23.84375v80c10.441406-46.453125 58.3125-49.699218 80-23.84375zm0 0" fill="#ffdaae" fill-rule="evenodd"/><path d="m276 366.15625c-21.6875-25.851562-69.558594-22.605469-80 23.84375h80zm0 0" fill="#bf9a94" fill-rule="evenodd"/><path d="m169.769531 354.195312c-5.972656 2.730469-11.402343 6.753907-15.769531 11.960938v23.84375h42c-4.152344-18.476562-14.234375-30.113281-26.230469-35.804688zm0 0" fill="#bf9a94" fill-rule="evenodd"/><path d="m332.800781 270.003906v180h80v-180zm0 0" fill="#96c8eb" fill-rule="evenodd"/><path d="m510.917969 142.433594-48.121094-94.828125v-37.605469c0-5.523438-4.472656-10-10-10h-393.597656c-5.523438 0-10 4.476562-10 10v37.609375l-48.117188 94.824219c-.710937 1.402344-1.082031 2.953125-1.082031 4.527344v24.597656c0 29.234375 21.304688 53.566406 49.199219 58.335937v210.105469h-10.234375c-5.523438 0-10 4.476562-10 10s4.476562 10 10 10h20.15625c.023437 0 .050781.003906.078125.003906h413.835937c5.519532 0 10-4.476562 10-10 0-5.523437-4.480468-10-10-10h-10.234375v-210.109375c27.894531-4.765625 49.199219-29.101562 49.199219-58.335937v-24.597656c0-1.574219-.371094-3.125-1.082031-4.527344zm-117.316407 29.125c0 21.613281-17.585937 39.199218-39.203124 39.199218-21.613282 0-39.199219-17.585937-39.199219-39.199218v-24.597656c0-.339844-.015625-.675782-.050781-1.011719l-8.722657-85.945313h60.246094l26.929687 88.445313zm-98.402343 0c0 21.613281-17.585938 39.199218-39.199219 39.199218s-39.199219-17.585937-39.199219-39.199218v-24.09375l8.878907-87.460938h60.644531l8.875 87.460938zm-98.398438-24.597656v24.597656c0 21.613281-17.585937 39.199218-39.199219 39.199218-21.617187 0-39.199218-17.585937-39.199218-39.199218v-23.109375l26.925781-88.445313h60.246094l-8.722657 85.945313c-.035156.335937-.050781.671875-.050781 1.011719zm-127.601562-126.960938h373.597656v20h-373.597656zm-49.199219 151.558594v-22.207032l45.339844-89.347656h59.082031l-25.585937 84.042969c-.289063.945313-.4375 1.925781-.4375 2.914063v24.597656c0 21.613281-17.585938 39.199218-39.199219 39.199218s-39.199219-17.585937-39.199219-39.199218zm49.199219 58.335937c16.292969-2.785156 30.339843-12.234375 39.203125-25.453125 10.628906 15.855469 28.714844 26.316406 49.199218 26.316406 20.480469 0 38.5625-10.460937 49.195313-26.316406 10.636719 15.855469 28.71875 26.316406 49.203125 26.316406 20.480469 0 38.566406-10.460937 49.195312-26.316406 10.636719 15.855469 28.71875 26.316406 49.203126 26.316406 20.484374 0 38.566406-10.460937 49.199218-26.316406 8.863282 13.21875 22.90625 22.671875 39.199219 25.453125v210.109375h-20v-170c0-5.523437-4.476563-10-10-10h-80c-5.523437 0-10 4.476563-10 10v170h-253.601563v-210.109375zm273.601562 210.109375v-70h10c5.523438 0 10-4.476562 10-10 0-5.523437-4.476562-10-10-10h-10v-70h60v160zm149.199219-268.445312c0 21.613281-17.585938 39.199218-39.199219 39.199218s-39.199219-17.585937-39.199219-39.199218v-24.597656c0-.988282-.148437-1.96875-.433593-2.914063l-25.589844-84.042969h59.082031l45.339844 89.347656zm0 0" fill="#000001"/><path d="m10.234375 440h-.234375c-5.523438 0-10 4.476562-10 10s4.476562 10 10 10h.234375c5.523437 0 10-4.476562 10-10s-4.476563-10-10-10zm0 0" fill="#000001"/><path d="m502 440.003906h-.234375c-5.523437 0-10 4.476563-10 10 0 5.523438 4.476563 10 10 10h.234375c5.523438 0 10-4.476562 10-10 0-5.523437-4.476562-10-10-10zm0 0" fill="#000001"/><path d="m285.957031 285.292969c-.007812-.054688-.003906-.109375-.011719-.164063-.03125-.328125-.082031-.652344-.148437-.976562-.019531-.097656-.050781-.191406-.074219-.289063-.050781-.222656-.101562-.441406-.167968-.660156-.046876-.152344-.105469-.296875-.160157-.441406-.058593-.160157-.105469-.320313-.175781-.480469-.078125-.191406-.175781-.375-.269531-.558594-.050781-.109375-.097657-.21875-.152344-.324218-.15625-.289063-.328125-.566407-.511719-.839844-.039062-.054688-.082031-.105469-.121094-.160156-.152343-.214844-.308593-.429688-.476562-.632813-.011719-.011719-.015625-.023437-.027344-.03125-13.410156-15.992187-35.195312-23.128906-55.503906-18.195313-13.425781 3.261719-24.472656 11.238282-32.15625 22.8125-7.683594-11.574218-18.730469-19.550781-32.15625-22.8125-20.308594-4.9375-42.09375 2.207032-55.503906 18.195313-.007813.007813-.015625.019531-.023438.03125-.171875.203125-.328125.417969-.480468.632813-.035157.054687-.082032.105468-.117188.160156-.183594.269531-.355469.550781-.511719.839844-.058593.105468-.105469.214843-.15625.324218-.09375.183594-.1875.367188-.269531.558594-.066406.160156-.117188.320312-.175781.480469-.054688.144531-.113281.292969-.15625.441406-.070313.21875-.121094.4375-.171875.660156-.023438.097657-.054688.191407-.074219.289063-.066406.324218-.113281.648437-.148437.976562-.003907.054688-.003907.109375-.007813.164063-.023437.273437-.042969.550781-.042969.828125v.035156 103.84375c0 5.523438 4.476563 10 10 10h79.996094.019531 79.980469c5.523438 0 10-4.476562 10-10v-103.84375c0-.011719 0-.023438 0-.035156-.003906-.277344-.019531-.554688-.042969-.828125zm-159.957031 94.710937v-9.933594c6.546875-6.355468 15.644531-10.066406 24.964844-10.066406 13.65625 0 24.671875 7.277344 31.023437 20zm24.964844-40.003906c-8.816406 0-17.332032 2.054688-24.964844 5.847656v-55.753906c8.628906-8.429688 21.261719-12.003906 33.121094-9.121094 13.445312 3.265625 22.953125 14.003906 26.878906 30.257813v41.738281c-.429688-.375-.859375-.75-1.300781-1.105469-9.566407-7.761719-21.230469-11.863281-33.734375-11.863281zm55.035156 12.96875v-41.738281c3.925781-16.25 13.433594-26.992188 26.878906-30.257813 11.859375-2.882812 24.496094.691406 33.121094 9.121094v55.757812c-7.632812-3.796874-16.148438-5.847656-24.964844-5.847656-12.503906 0-24.167968 4.101563-33.734375 11.859375-.441406.359375-.871093.734375-1.300781 1.105469zm60 27.035156h-55.988281c6.351562-12.722656 17.367187-20.003906 31.023437-20.003906 9.320313 0 18.417969 3.714844 24.964844 10.070312zm0 0" fill="#000001"/></svg>