<?xml version="1.0" encoding="iso-8859-1"?>
<!-- Generator: Adobe Illustrator 19.0.0, SVG Export Plug-In . SVG Version: 6.00 Build 0)  -->
<svg version="1.1" id="Capa_1" xmlns="http://www.w3.org/2000/svg" xmlns:xlink="http://www.w3.org/1999/xlink" x="0px" y="0px"
	 viewBox="0 0 512.001 512.001" style="enable-background:new 0 0 512.001 512.001;" xml:space="preserve">
<g>
	<polygon style="fill:#54BA9D;" points="56.001,75.997 256.001,75.997 456.001,75.997 456.001,35.999 56.001,35.999 	"/>
	<g>
		<polygon style="fill:#FF9D21;" points="256.001,155.999 256.001,75.997 56.001,75.997 10.001,155.999 		"/>
		<polygon style="fill:#FF9D21;" points="256.001,75.997 256.001,155.999 502.001,155.999 456.001,75.997 		"/>
		<polygon style="fill:#FF9D21;" points="502.001,155.999 256.001,155.999 256.001,196.002 270.284,196.002 313.142,196.002 
			356.001,196.002 456.001,196.002 502.001,196.002 		"/>
		<polygon style="fill:#FF9D21;" points="256.001,196.002 256.001,155.999 10.001,155.999 10.001,196.002 55.999,196.002 
			98.857,196.002 141.712,196.002 184.571,196.002 227.429,196.002 		"/>
	</g>
	<path style="fill:#FFDAAE;" d="M227.429,196.002h-42.858h-42.859H98.857H55.999v280h223.205l76.797-0.004v-99.996v-100v-80h-42.859
		h-42.857h-14.284H227.429L227.429,196.002z M131.511,370.569c14.262-53.223,55.836-94.796,109.057-109.058l7.766,28.976
		l14.184,52.934l17.971,67.065l-69.838-18.714l-50.16-13.439L131.511,370.569z"/>
	<path style="fill:#BF9A94;" d="M240.567,261.512c-53.221,14.262-94.795,55.835-109.057,109.058l28.979,7.764
		c11.488-42.871,44.975-76.355,87.844-87.846L240.567,261.512z"/>
	<path style="fill:#FF5A5A;" d="M248.333,290.487c-42.869,11.49-76.356,44.975-87.844,87.846l50.16,13.439l69.838,18.714
		l-17.971-67.065L248.333,290.487z"/>
	<g>
		<rect x="356.001" y="196.001" style="fill:#96C8EB;" width="100" height="80"/>
		<polygon style="fill:#96C8EB;" points="456.001,276.001 356.001,276.001 356.001,376.001 356.001,475.997 452.8,476.001 
			456.001,476.001 		"/>
	</g>
</g>
<g>
	<path style="fill:#000001;" d="M511.995,155.9c-0.002-0.219-0.016-0.436-0.033-0.655c-0.008-0.115-0.012-0.23-0.025-0.345
		c-0.021-0.199-0.057-0.397-0.09-0.597c-0.023-0.132-0.041-0.266-0.068-0.396c-0.035-0.16-0.081-0.319-0.124-0.479
		c-0.044-0.165-0.085-0.331-0.136-0.493c-0.04-0.122-0.089-0.242-0.133-0.363c-0.072-0.194-0.143-0.389-0.225-0.576
		c-0.044-0.101-0.096-0.199-0.145-0.299c-0.096-0.202-0.194-0.403-0.305-0.598c-0.016-0.028-0.026-0.058-0.043-0.085l-44.667-77.686
		V35.999c0-5.522-4.478-10-10-10h-400c-5.524,0-10,4.478-10,10v37.329L1.333,151.015c-0.012,0.021-0.021,0.043-0.032,0.064
		c-0.128,0.225-0.242,0.456-0.353,0.69c-0.031,0.068-0.067,0.136-0.098,0.204c-0.1,0.226-0.186,0.457-0.268,0.691
		c-0.03,0.083-0.065,0.165-0.092,0.249c-0.066,0.202-0.118,0.41-0.172,0.618c-0.029,0.117-0.064,0.234-0.09,0.352
		c-0.037,0.172-0.062,0.348-0.09,0.523c-0.025,0.156-0.055,0.313-0.072,0.469c-0.017,0.151-0.023,0.306-0.033,0.459
		c-0.012,0.181-0.025,0.36-0.027,0.54c0,0.042-0.006,0.083-0.006,0.125v39.999c0,5.522,4.476,10,10,10h36v260h-7.033
		c-5.523,0-10,4.478-10,10s4.477,10,10,10h16.955c0.026,0,0.051,0.004,0.078,0.004h396.799h3.202h17.032c5.522,0,10-4.478,10-10
		c0-5.523-4.478-10-10-10h-7.032V205.997h36c5.522,0,10-4.478,10-10v-39.999C512.001,155.965,511.995,155.934,511.995,155.9z
		 M61.786,85.997h184.217v60.001H27.287L61.786,85.997z M266.003,85.997h184.213l34.5,60.001H266.003V85.997z M66.001,45.999h380
		v19.998h-380V45.999z M20.001,165.999h226.002v19.999H20.001V165.999z M88.857,205.997v9.999c0,5.522,4.478,10,10,10
		c5.523,0,10-4.478,10-10v-9.999h22.856v9.999c0,5.522,4.478,10,10,10c5.523,0,10-4.478,10-10v-9.999h22.857v9.999
		c0,5.522,4.477,10,10,10s10-4.478,10-10v-9.999h22.859v9.999c0,5.522,4.477,10,10,10c5.522,0,10-4.478,10-10v-9.999h22.855v9.999
		c0,5.522,4.478,10,10,10c5.523,0,10-4.478,10-10v-9.999h22.857v9.999c0,5.522,4.477,10,10,10s10-4.478,10-10v-9.999H346v260.004
		H66.001V205.997H88.857z M366.003,466.001v-80.004h10c5.523,0,10-4.478,10-10s-4.477-10-10-10h-10v-80l79.998,0.004v180H366.003z
		 M446.001,266.001l-79.998-0.004v-60h79.998V266.001z M492.001,185.997H266.003v-19.999h225.998V185.997z"/>
	<path style="fill:#000001;" d="M10.237,465.997h-0.236c-5.524,0-10,4.478-10,10s4.476,10,10,10h0.236c5.522,0,10-4.478,10-10
		S15.76,465.997,10.237,465.997z"/>
	<path style="fill:#000001;" d="M502.001,466.001h-0.236c-5.523,0-10,4.477-10,10c0,5.522,4.477,10,10,10h0.236
		c5.522,0,10-4.478,10-10C512.001,470.478,507.523,466.001,502.001,466.001z"/>
	<path style="fill:#000001;" d="M128.924,380.225l28.978,7.768c0.02,0.005,0.041,0.007,0.061,0.012l119.938,32.142
		c0.855,0.229,1.725,0.341,2.588,0.341c0.037,0,0.075,0,0.113,0c5.48-0.05,9.907-4.508,9.907-10c0-1.128-0.186-2.213-0.531-3.224
		l-31.981-119.363c-0.002-0.011-0.006-0.021-0.01-0.031l-7.758-28.945c-1.43-5.335-6.913-8.502-12.247-7.07
		c-56.491,15.139-100.989,59.635-116.126,116.124C120.425,373.311,123.59,378.796,128.924,380.225z M220.449,384.044l-0.719-27.264
		c-0.145-5.521-4.704-9.9-10.261-9.733c-5.52,0.146-9.878,4.738-9.732,10.26l0.563,21.337l-27.135-7.272
		c11.537-31.596,36.618-56.676,68.215-68.212l9.885,36.896l-13.271,11.851c-4.119,3.678-4.477,10-0.799,14.119
		c1.976,2.213,4.713,3.34,7.463,3.34c2.37,0,4.75-0.838,6.656-2.541l5.748-5.133l9.284,34.65L220.449,384.044z M233.589,274.097
		l2.599,9.696c-38.456,13.471-68.923,43.936-82.393,82.392l-9.696-2.6C158.526,321.701,191.702,288.525,233.589,274.097z"/>
</g>
<g>
</g>
<g>
</g>
<g>
</g>
<g>
</g>
<g>
</g>
<g>
</g>
<g>
</g>
<g>
</g>
<g>
</g>
<g>
</g>
<g>
</g>
<g>
</g>
<g>
</g>
<g>
</g>
<g>
</g>
</svg>
