<?xml version="1.0" encoding="UTF-8"?>
<svg width="320px" height="650px" viewBox="0 0 320 650" version="1.1" xmlns="http://www.w3.org/2000/svg" xmlns:xlink="http://www.w3.org/1999/xlink">
    <!-- Generator: Sketch 54.1 (76490) - https://sketchapp.com -->
    <title>bg-lufkin-landscape-mobile</title>
    <desc>Created with Sketch.</desc>
    <g id="Welcome" stroke="none" stroke-width="1" fill="none" fill-rule="evenodd">
        <g id="Mobile-Portrait">
            <g id="bg-lufkin-landscape-mobile">
                <rect id="Rectangle" fill="#BEE5F4" x="0" y="0" width="320" height="650"></rect>
                <g id="landscape" transform="translate(56.000000, 455.000000)">
                    <g id="forest">
                        <path d="M111,79.6552276 C111,75.6289673 105.256446,68.3182525 107.454403,65.3029634 L107.454403,18.1029512 C107.454403,8.14704885 99.4768093,0 89.7279858,0 C79.9775935,0 72,8.14704885 72,18.1029512 L72,50.8193208 C74.1979568,53.836212 72,64.6364595 72,68.6595156 L72,105 C75.2365341,100.557175 87.4657067,97.6171875 93.2720142,97.6171875 C99.0830283,97.6171875 104.217869,100.550766 107.454403,105 L111,79.6552276 Z" id="Path" fill="#1A9172"></path>
                        <path d="M90.5007745,94 C88.5676034,94 87,92.3828699 87,90.3902204 L87,32.6113774 C87,30.6171301 88.5676034,29 90.5007745,29 C92.4323966,29 94,30.6171301 94,32.6113774 L94,90.3902204 C94,92.3828699 92.4323966,94 90.5007745,94 Z" id="Path" fill="#BE7C6D"></path>
                        <path d="M91.5011612,93 C90.6045793,93 89.7095453,92.6577435 89.0266564,91.974779 C87.6577812,90.607301 87.6577812,88.394248 89.0266564,87.02677 L96.0258822,80.0267699 C97.3932089,78.6577434 99.6044684,78.6577434 100.973344,80.0267699 C102.342219,81.3957965 102.342219,83.6073009 100.973344,84.9763275 L93.9741181,91.974779 C93.2927775,92.6577435 92.3961952,93 91.5011612,93 Z" id="Path" fill="#BE7C6D"></path>
                        <path d="M91.5011612,61 C90.6045793,61 89.7095453,60.6562044 89.0266564,59.9748073 C87.6577812,58.6058186 87.6577812,56.3943753 89.0266564,55.0253866 L96.0258822,48.0255801 C97.3932089,46.65814 99.6044684,46.65814 100.973344,48.0255801 C102.342219,49.3945688 102.342219,51.6060121 100.973344,52.9750008 L93.9741181,59.9748073 C93.2927775,60.6562044 92.3961952,61 91.5011612,61 Z" id="Path" fill="#BE7C6D"></path>
                        <path d="M90.5003871,76 C89.6038051,76 88.7087712,75.6577435 88.0258822,74.974779 L81.0266564,67.9747789 C79.6577812,66.6073009 79.6577812,64.3942479 81.0266564,63.0267699 C82.3955315,61.6577434 84.6067913,61.6577434 85.9756665,63.0267699 L92.9733439,70.02677 C94.3422187,71.394248 94.3422187,73.6057524 92.9733439,74.974779 C92.2920034,75.6577435 91.395421,76 90.5003871,76 Z" id="Path" fill="#BE7C6D"></path>
                        <path d="M35.5008188,14 C25.3253683,14 17,22.1470488 17,32.1045532 L17,79.1731871 C17,79.2965543 17.0376562,79.4119107 17.0376562,79.5384825 C18.224656,79.3029634 19.4460372,115.380691 20.7001638,115.380691 C30.7495463,115.380691 38.9603081,98.3511963 39.1633259,108.13887 C39.1747867,108.135666 39.1895217,96.9108428 39.199345,96.9076382 L54,119 L54,32.1045532 C54,22.1470488 45.6746317,14 35.5008188,14 Z" id="Path" fill="#3D6F44"></path>
                        <path d="M173.499181,14 C163.325368,14 155,22.1004778 155,32.001062 L155,43.1680923 L158.700163,121.996814 C158.711624,122 158.726359,121.996814 158.73782,122 C158.940838,112.269868 178.250454,96.8001061 188.299836,96.8001061 C189.553963,96.8001061 190.775344,78.9296715 191.962344,79.1638443 C191.962344,79.037996 192,78.923299 192,78.800637 L192,32.001062 C192,22.1004778 183.674632,14 173.499181,14 Z" id="Path" fill="#61B872"></path>
                        <path d="M134.299836,144.895446 L134.299836,61.7282559 C131.195628,59.4227295 127.372671,58 123.199345,58 C113.025532,58 104.700164,66.1454464 104.700164,76.1029507 L104.700164,97.9581905 C106.993938,100.97348 101,104.663284 101,108.689544 L101,144.895446 C101,147.67041 107.701226,150.272339 106.550245,152.625931 C109.531661,158.727005 115.859596,163 123.199345,163 C129.26041,163 134.622373,160.071228 138,155.628402 C135.706226,152.611511 134.299836,148.921707 134.299836,144.895446 L134.299836,144.895446 Z" id="Path" fill="#3D6F44"></path>
                        <path d="M21.5,162 C11.3257367,162 3,153.879966 3,143.95548 L3,97.0429229 C3,87.1200337 11.3257367,79 21.5,79 C31.6759009,79 40,87.1200337 40,97.0429229 L40,143.95548 C40,153.879966 31.6759009,162 21.5,162 Z" id="Path" fill="#61B872"></path>
                        <path d="M21.5001936,137 C20.6051101,137 19.7084782,136.656204 19.0255515,135.974807 C17.6581495,134.605818 17.6581495,132.394375 19.0255515,131.025386 L26.0251644,124.02558 C27.3941152,122.65814 29.6054974,122.65814 30.9744482,124.02558 C32.3418506,125.394569 32.3418506,127.606012 30.9744482,128.975 L23.9748353,135.974807 C23.2919086,136.656204 22.3968251,137 21.5001936,137 Z" id="Path" fill="#BE7C6D"></path>
                        <path d="M20.4988388,150 C19.6038048,150 18.7072225,149.657743 18.0243335,148.974779 L11.0266561,141.974779 C9.65778131,140.607301 9.65778131,138.395796 11.0266561,137.02677 C12.3939828,135.657743 14.6067911,135.657743 15.9741178,137.02677 L22.9733436,144.02677 C24.3422188,145.394248 24.3422188,147.605752 22.9733436,148.974779 C22.2904547,149.657743 21.3954207,150 20.4988388,150 Z" id="Path" fill="#BE7C6D"></path>
                        <path d="M57.5011615,137 C56.6045792,137 55.7095453,136.656204 55.0266563,135.974807 C53.6577812,134.605818 53.6577812,132.394375 55.0266563,131.025386 L62.025882,124.02558 C63.3932087,122.65814 65.606017,122.65814 66.9733437,124.02558 C68.3422188,125.394569 68.3422188,127.606012 66.9733437,128.975 L59.9756664,135.974807 C59.2927774,136.656204 58.3961951,137 57.5011615,137 Z" id="Path" fill="#BE7C6D"></path>
                        <path d="M58.4998066,150 C57.6031747,150 56.7080912,149.657743 56.0251645,148.974779 L49.0255517,141.974779 C47.6581494,140.607301 47.6581494,138.395796 49.0255517,137.02677 C50.3945026,135.657743 52.6058847,135.657743 53.9748355,137.02677 L60.9744483,144.02677 C62.3418506,145.394248 62.3418506,147.605752 60.9744483,148.974779 C60.2915215,149.657743 59.3948896,150 58.4998066,150 Z" id="Path" fill="#BE7C6D"></path>
                        <path d="M57.5011615,105 C56.6045792,105 55.7095453,104.657743 55.0266563,103.974779 C53.6577812,102.605752 53.6577812,100.394248 55.0266563,99.0252214 L62.025882,92.0267699 C63.3932087,90.6577434 65.606017,90.6577434 66.9733437,92.0267699 C68.3422188,93.3942475 68.3422188,95.6073009 66.9733437,96.9747785 L59.9756664,103.974779 C59.2927774,104.657743 58.3961951,105 57.5011615,105 Z" id="Path" fill="#BE7C6D"></path>
                        <path d="M58.4998066,119 C57.6031747,119 56.7080912,118.657715 56.0251645,117.974693 L49.0255517,110.975661 C47.6581494,109.606522 47.6581494,107.394833 49.0255517,106.025694 C50.3945026,104.658102 52.6058847,104.658102 53.9748355,106.025694 L60.9744483,113.026274 C62.3418506,114.393865 62.3418506,116.607102 60.9744483,117.974693 C60.2915215,118.657715 59.3948896,119 58.4998066,119 Z" id="Path" fill="#BE7C6D"></path>
                        <path d="M89.5008186,162 C79.3253683,162 71,153.899462 71,143.998805 L71,107.999602 C71,98.0989446 79.3253683,90 89.5008186,90 C99.6746317,90 108,98.0989446 108,107.999602 L108,143.998805 C108,153.899462 99.6746317,162 89.5008186,162 Z" id="Path" fill="#61B872"></path>
                        <path d="M91.5011612,147 C90.6045793,147 89.7095453,146.657743 89.0266564,145.974779 C87.6577812,144.607301 87.6577812,142.394248 89.0266564,141.02677 L96.0258822,134.02677 C97.3932089,132.657743 99.6044684,132.657743 100.973344,134.02677 C102.342219,135.395796 102.342219,137.607301 100.973344,138.974779 L93.9741181,145.974779 C93.2927775,146.657743 92.3961952,147 91.5011612,147 Z" id="Path" fill="#BE7C6D"></path>
                        <path d="M21.5,178 C19.5688052,178 18,176.384995 18,174.39693 L18,111.60307 C18,109.61341 19.5688052,108 21.5,108 C23.4327434,108 25,109.61341 25,111.60307 L25,174.39693 C25,176.384995 23.4327434,178 21.5,178 L21.5,178 Z" id="Path" fill="#BE7C6D"></path>
                        <path d="M187.5,162 C197.674263,162 206,153.879966 206,143.95548 L206,97.0429229 C206,87.1200337 197.674263,79 187.5,79 C177.324099,79 169,87.1200337 169,97.0429229 L169,143.95548 C169,153.879966 177.324099,162 187.5,162 L187.5,162 Z" id="Path" fill="#1A9172"></path>
                        <path d="M187.499806,137 C186.603175,137 185.708091,136.656204 185.025165,135.974807 L178.025552,128.975 C176.658149,127.606012 176.658149,125.394569 178.025552,124.02558 C179.394503,122.65814 181.605885,122.65814 182.974836,124.02558 L189.974449,131.025386 C191.34185,132.394375 191.34185,134.605818 189.974449,135.974807 C189.291522,136.656204 188.39489,137 187.499806,137 Z" id="Path" fill="#BE7C6D"></path>
                        <path d="M188.501161,150 C187.604579,150 186.709545,149.657743 186.026656,148.974779 C184.657781,147.605752 184.657781,145.394248 186.026656,144.02677 L193.025882,137.02677 C194.393209,135.657743 196.606017,135.657743 197.973344,137.02677 C199.342219,138.395796 199.342219,140.607301 197.973344,141.974779 L190.975666,148.974779 C190.292778,149.657743 189.396195,150 188.501161,150 Z" id="Path" fill="#BE7C6D"></path>
                        <path d="M150.499181,162 C160.674631,162 169,153.885928 169,143.968729 L169,61.0312697 C169,51.1140714 160.674631,43 150.499181,43 C140.325368,43 132,51.1140714 132,61.0312697 L132,143.968729 C132,153.885928 140.325368,162 150.499181,162 L150.499181,162 Z" id="Path" fill="#23A24D"></path>
                        <g id="Group" transform="translate(112.000000, 72.000000)" fill="#BE7C6D">
                            <path d="M39.6044469,122.873897 C37.6310297,122.873897 36.0279249,121.256904 36.0279249,119.266391 L36.0279249,3.83257621 C36.0279249,1.84206271 37.6310297,0.225069977 39.6044469,0.225069977 C41.5794469,0.225069977 43.1809698,1.84206271 43.1809698,3.83257621 L43.1809698,119.266391 C43.1809698,121.256904 41.5794469,122.873897 39.6044469,122.873897 Z" id="Path"></path>
                            <path d="M39.6044469,65.1569898 C38.6897436,65.1569898 37.7734574,64.802624 37.0755609,64.1002776 L29.9240985,56.8852652 C28.5251401,55.4741875 28.5251401,53.1947544 29.9240985,51.7836767 C31.3214744,50.3741956 33.5829126,50.3741956 34.9802885,51.7836767 L42.1333333,58.9986892 C43.5322917,60.4097668 43.5322917,62.6892 42.1333333,64.1002776 C41.4354368,64.802624 40.5207331,65.1569898 39.6044469,65.1569898 Z" id="Path"></path>
                            <path d="M39.6044469,79.5854182 C38.6897436,79.5854182 37.7734574,79.2326489 37.0755609,78.5287064 C35.678185,77.1176287 35.678185,74.8381956 37.0755609,73.4287141 L44.2286058,66.2137016 C45.6275641,64.802624 47.8874199,64.802624 49.2863782,66.2137016 C50.6837541,67.6247793 50.6837541,69.9042124 49.2863782,71.3136939 L42.1333333,78.5287064 C41.4354368,79.2326489 40.5207331,79.5854182 39.6044469,79.5854182 Z" id="Path"></path>
                            <path d="M39.6044469,32.6910299 C38.6897436,32.6910299 37.7734574,32.3382606 37.0755609,31.6343177 L29.9240985,24.4193052 C28.5251401,23.0098241 28.5251401,20.7287944 29.9240985,19.3193133 C31.3214744,17.9082357 33.5829126,17.9082357 34.9802885,19.3193133 L42.1333333,26.5327296 C43.5322917,27.9438069 43.5322917,30.2232404 42.1333333,31.6343177 C41.4354368,32.3382606 40.5207331,32.6910299 39.6044469,32.6910299 Z" id="Path"></path>
                            <path d="M39.6044469,47.1194587 C38.6897436,47.1194587 37.7734574,46.766689 37.0755609,46.0627465 C35.678185,44.6532654 35.678185,42.3722357 37.0755609,40.9627546 L44.2286058,33.7477421 C45.6275641,32.3382606 47.8874199,32.3382606 49.2863782,33.7477421 C50.6837541,35.1588194 50.6837541,37.4382529 49.2863782,38.8493302 L42.1333333,46.0627465 C41.4354368,46.766689 40.5207331,47.1194587 39.6044469,47.1194587 Z" id="Path"></path>
                            <path d="M10.9938503,104.836366 C9.02043269,104.836366 7.41732783,103.220969 7.41732783,101.228859 L7.41732783,3.83257621 C7.41732783,1.84206271 9.02043269,0.225069977 10.9938503,0.225069977 C12.9688503,0.225069977 14.5703727,1.84206271 14.5703727,3.83257621 L14.5703727,101.228859 C14.5703727,103.220969 12.9688503,104.836366 10.9938503,104.836366 Z" id="Path"></path>
                            <path d="M10.9938503,65.1569898 C10.0791465,65.1569898 9.16286078,64.802624 8.46654668,64.1002776 L1.31350181,56.8852652 C-0.0854569333,55.4741875 -0.0854569333,53.1947544 1.31350181,51.7836767 C2.7108773,50.3741956 4.97231591,50.3741956 6.36969141,51.7836767 L13.5227363,58.9986892 C14.9216946,60.4097668 14.9216946,62.6892 13.5227363,64.1002776 C12.8248397,64.802624 11.9101364,65.1569898 10.9938503,65.1569898 Z" id="Path"></path>
                            <path d="M10.9938503,32.6910299 C10.0791465,32.6910299 9.16286078,32.3382606 8.46654668,31.6343177 L1.31350181,24.4193052 C-0.0854569333,23.0098241 -0.0854569333,20.7287944 1.31350181,19.3193133 C2.7108773,17.9082357 4.97231591,17.9082357 6.36969141,19.3193133 L13.5227363,26.5327296 C14.9216946,27.9438069 14.9216946,30.2232404 13.5227363,31.6343177 C12.8248397,32.3382606 11.9101364,32.6910299 10.9938503,32.6910299 Z" id="Path"></path>
                            <path d="M75.3680888,106.38472 C73.3930888,106.38472 71.7915664,104.767727 71.7915664,102.777214 L71.7915664,39.9060424 C71.7915664,37.9139327 73.3930888,36.2985361 75.3680888,36.2985361 C77.3415064,36.2985361 78.9446113,37.9139327 78.9446113,39.9060424 L78.9446113,102.777214 C78.9446113,104.767727 77.3415064,106.38472 75.3680888,106.38472 L75.3680888,106.38472 Z" id="Path"></path>
                        </g>
                        <path d="M73.2998363,143.968729 L73.2998363,107.909381 C73.2998363,103.899418 74.7062261,100.224549 77,97.2214649 L77,61.0312697 C77,51.1140714 68.6746317,43 58.500819,43 C48.3253687,43 40,51.1140714 40,61.0312697 L40,143.968729 C40,153.885928 48.3253687,162 58.500819,162 C65.8405682,162 72.1685029,157.744301 75.1499184,151.667923 C73.9989381,149.323858 73.2998363,146.732461 73.2998363,143.968729 L73.2998363,143.968729 Z" id="Path" fill="#23A24D"></path>
                        <path d="M57.5,186 C55.567257,186 54,184.37911 54,182.383799 L54,74.6162012 C54,72.6208901 55.567257,71 57.5,71 C59.4311948,71 61,72.6208901 61,74.6162012 L61,182.383799 C61,184.37911 59.4311948,186 57.5,186 Z" id="Path" fill="#BE7C6D"></path>
                        <path d="M90.5007745,186 C88.5676034,186 87,184.37459 87,182.370131 L87,122.629869 C87,120.627017 88.5676034,119 90.5007745,119 C92.4323966,119 94,120.627017 94,122.629869 L94,182.370131 C94,184.377802 92.4323966,186 90.5007745,186 L90.5007745,186 Z" id="Path" fill="#BE7C6D"></path>
                        <path d="M161.545163,183.76438 C162.592621,183.76438 163.585541,184.069469 164.539964,184.5 C167.831517,176.838717 173.522761,174 180,174 C186.477239,174 192.165275,176.838717 195.460037,184.5 C196.414459,184.069469 197.407379,183.76438 198.454837,183.76438 C204.276011,183.76438 209,186.161726 209,195 L151,195 C151,186.161726 155.720781,183.76438 161.545163,183.76438 L161.545163,183.76438 Z" id="Path" fill="#61B872"></path>
                        <path d="M56.5451631,183.76438 C57.5926213,183.76438 58.5855414,184.069469 59.5399638,184.5 C62.8315175,176.838717 68.5227614,174 75,174 C81.477239,174 87.1652746,176.838717 90.4600367,184.5 C91.4144586,184.069469 92.4073787,183.76438 93.4548369,183.76438 C99.276011,183.76438 104,186.161726 104,195 L46,195 C46,186.161726 50.7207811,183.76438 56.5451631,183.76438 L56.5451631,183.76438 Z" id="Path" fill="#61B872"></path>
                        <path d="M53,184.675 C51.4682921,184.052434 49.7279357,183.76438 47.8500977,183.76438 C46.7939149,183.76438 45.7927246,184.069469 44.8303527,184.5 C41.5081483,176.838717 35.7727355,174 29.2415467,174 C22.7103576,174 16.9749452,176.838717 13.6527404,184.5 C12.6903689,184.069469 11.6891786,183.76438 10.6329958,183.76438 C4.75848409,183.76438 0,186.161726 0,195 L47.5169065,195 C47.5169065,188.989602 49.7424925,186.000664 53,184.675 L53,184.675 Z" id="Path" fill="#23A24D"></path>
                        <path d="M140.367005,183.76438 C139.310822,183.76438 138.309632,184.069469 137.348877,184.5 C134.029908,176.838717 128.29126,174 121.758454,174 C115.227265,174 109.491852,176.838717 106.169647,184.5 C105.208893,184.069469 104.206086,183.76438 103.149902,183.76438 C101.272064,183.76438 99.5317079,184.052434 98,184.675 C101.257508,186.000664 103.483093,188.989602 103.483093,195 L151,195 C151,186.161726 146.241516,183.76438 140.367005,183.76438 L140.367005,183.76438 Z" id="Path" fill="#3D6F44"></path>
                    </g>
                    <g id="Lufkin-sign-small" transform="translate(63.000000, 154.000000)">
                        <g id="Lufkin-Sign">
                            <g id="trunk">
                                <g>
                                    <circle id="Oval" fill="#998269" cx="41" cy="41" r="36"></circle>
                                    <circle id="Oval" fill="#AA947D" cx="42" cy="43" r="28"></circle>
                                    <path d="M40.510114,0 C37.4799812,0 34.9011626,2.18561873 32.0665546,2.83035536 C30.0021606,3.29974101 27.1737465,2.42866956 25.2462867,3.20696714 C23.4011885,3.95199985 21.625227,4.83193078 19.9306226,5.83472442 C18.3197189,6.78803865 17.6079281,9.35411384 16.1547166,10.5188856 C14.2406489,12.0529142 11.1926042,12.3494563 9.59475782,14.2077754 C8.20214555,15.82739 6.93893457,17.5610077 5.8208606,19.3927484 C4.42690913,21.676323 4.53890067,25.5241821 3.62740003,28.0817321 C3.00617343,29.8247108 2.50413662,31.6241896 2.1309989,33.4703061 C1.85227556,34.8493772 1.64570223,36.2543581 1.51496174,37.6814042 C1.40531382,38.8797752 1.34923435,40.0936921 1.34923435,41.3208146 C1.34923435,43.7708806 -0.359096961,46.8422809 0.0687810234,49.1688156 C0.338464682,50.6349772 0.68917062,52.0728886 1.1162116,53.4777024 C1.54526139,54.8893697 2.05148323,56.2674378 2.62985508,57.6072263 C3.32205987,59.2106263 6.04953092,60.0857096 6.94010638,61.5709273 C7.56434621,62.6120006 8.23512363,63.621815 8.94992761,64.5976959 C9.76115481,65.705466 10.6287963,66.7694403 11.548667,67.7854396 C12.6312518,68.981136 13.6175809,71.7504779 14.8377697,72.8064285 C16.2133071,73.9966086 17.6718755,75.0933462 19.2035983,76.0872804 C20.5953736,76.9902794 22.2163213,76.1680187 23.7215947,76.8933265 C25.7089842,77.8509869 27.7772285,80.7077536 29.932689,81.3260789 C31.8333645,81.8713553 33.3649199,81.7214126 35.3712257,81.9780034 C37.0315128,82.1902968 39.1633697,80.7960142 40.8814103,80.7960142 C43.5179824,80.7960142 46.4056566,82.3746744 48.8977612,81.8830565 C51.0672834,81.4551266 53.286189,80.4219098 55.3124156,79.6551462 C56.9117686,79.0498594 58.0368734,76.9356181 59.5294243,76.1369269 C61.3812186,75.1458345 63.144625,74.0118202 64.8050795,72.749594 C66.1765992,71.7070163 68.8715943,71.6580384 70.0942942,70.448802 C71.6471096,68.9129347 73.0730347,67.2495242 74.3549947,65.4754537 C75.2726891,64.205371 74.7227755,61.7975965 75.4867955,60.4203641 C76.4496884,58.6845733 77.2851888,56.8687128 77.9812438,54.9853196 C78.6212194,53.2533735 80.9291825,52.2492426 81.323078,50.4126542 C81.6203829,49.0263952 81.8448682,47.6132234 81.9921814,46.1773179 C82.1294506,44.8388667 80.4137536,42.6955395 80.4137536,41.3208146 C80.4137536,38.9621851 80.2066781,36.6518649 79.8094345,34.4070715 C79.4883587,32.5923811 80.5749612,31.5187116 80.0146687,29.7986338 C79.1622607,27.181742 78.2783813,23.7155095 76.9254432,21.3705871 C76.1445157,20.0170915 73.5188247,18.9853792 72.5877381,17.7392004 C71.6536382,16.4890098 71.027557,12.9333466 69.9550162,11.8036784 C68.7319816,10.5153753 67.4227352,9.30948209 66.0366516,8.19502549 C64.2270424,6.74006369 61.906022,7.80353646 59.8548526,6.68088901 C57.9146704,5.61908785 55.8757213,4.71491869 53.7550803,3.98610052 C52.0005462,3.38248528 49.8186363,1.05394463 47.9621548,0.700400954 C45.5488962,0.24054343 43.0576285,0 40.510114,0 Z M40.8817451,74.4462694 C22.5604986,74.4462694 7.70814401,59.6153209 7.70814401,41.3204803 C7.70814401,23.0256396 22.5604986,8.19452401 40.8817451,8.19452401 C59.2029915,8.19452401 74.0553462,23.0254724 74.0553462,41.3203131 C74.0553462,59.6151538 59.2029915,74.4462694 40.8817451,74.4462694 Z" id="Shape" fill="#564A3D" fill-rule="nonzero"></path>
                                    <circle id="Oval" fill="#B5A593" cx="41.5" cy="42.5" r="21.5"></circle>
                                    <circle id="Oval" fill="#C2B5A5" cx="41" cy="42" r="16"></circle>
                                    <circle id="Oval" fill="#AA947D" cx="41.5" cy="41.5" r="9.5"></circle>
                                    <circle id="Oval" fill="#C2B5A5" cx="41" cy="41" r="3"></circle>
                                    <path d="M80.382881,40.3573712 C80.382881,37.9428801 80.1717775,35.5778425 79.7668071,33.2798835 C79.4394859,31.4222141 80.5472242,30.3231158 79.9760333,28.5622999 C79.107045,25.8834297 78.2059731,22.3351031 76.8267186,19.9346438 C76.0306011,18.5490921 73.3538372,17.4929448 72.4046398,16.2172515 C71.6272946,15.1723981 71.0590049,12.5553019 70.2816597,11 C71.8435177,15.619019 72.6908325,20.5686402 72.6908325,25.7167596 C72.6908325,51.0148426 52.2380353,71.5229585 27.0081916,71.5229585 C21.375468,71.5229585 15.9820063,70.4981259 11,68.6286493 C11.8043091,69.9914421 12.6011093,71.7803217 13.5313637,72.5886885 C14.9336569,73.8070568 16.4205962,74.9297695 17.982113,75.9472439 C19.40096,76.8716295 21.0534372,76.0298944 22.58799,76.7723804 C24.6140366,77.752722 26.7225108,80.6771481 28.9198976,81.3101178 C30.8575436,81.8683085 32.4188897,81.7148146 34.4642206,81.9774825 C36.1568023,82.1948038 38.3301264,80.767499 40.081585,80.767499 C42.7694416,80.767499 45.7132846,82.3835482 48.2538638,81.8802868 C50.4655859,81.4422218 52.7276519,80.3845344 54.7932911,79.5996109 C56.4237534,78.9799885 57.5707429,76.8156735 59.0923258,75.9980663 C60.9801398,74.9835009 62.7778465,73.8226286 64.4705989,72.530508 C65.8687964,71.4632379 68.6162125,71.4131 69.8626954,70.1752241 C71.4457149,68.6029814 72.8993761,66.9001748 74.2062717,65.0840874 C75.1418165,63.7839241 74.5812064,61.319124 75.3600875,59.9092734 C76.3417098,58.1323722 77.1934617,56.2735049 77.9030559,54.3455056 C78.5554797,52.5725401 80.9083356,51.5446274 81.3098928,49.6645414 C81.6129807,48.2454504 81.8418325,46.7988091 81.9920111,45.3288957 C82.132121,43.9587447 80.382881,41.7646551 80.382881,40.3573712 Z" id="Path" fill="#564A3D" opacity="0.19"></path>
                                </g>
                            </g>
                            <g id="text" transform="translate(13.000000, 6.000000)">
                                <text id="Lufk-n" font-family="Palatino-Roman, Palatino" font-size="19" font-weight="normal" fill="#000000">
                                    <tspan x="0" y="31">Lufk n</tspan>
                                </text>
                                <g id="twot-trees" transform="translate(37.000000, 7.000000)">
                                    <path d="M4.50001604,16 L4.50001604,16 C1.7987789,16 -0.293631727,13.451465 0.033815088,10.5601915 L0.833400075,3.50019991 C1.05971424,1.50202995 2.63312326,0 4.50001604,0 L4.50001604,0 C6.36690882,0 7.94027803,1.50202995 8.16659219,3.50019991 L8.96617718,10.5601915 C9.29366381,13.451465 7.20125318,16 4.50001604,16 Z" id="Path" fill="#4FC16E"></path>
                                    <path d="M4,16 L4,16 C4,12.7509613 4,2.5438982 4,0 L4,0 C6.07433271,0 7.82252694,1.50202995 8.07398802,3.50019991 L8.96241895,10.5601915 C9.32629428,13.451465 7.0013853,16 4,16 Z" id="Path" fill="#369151"></path>
                                    <polygon id="Path" fill="#804D00" points="7.3896119 11.3136916 5.65581416 12.3029443 5.65581416 8.68762438 8 7.35013347 7.3896119 6.09035565 5.65581416 7.07960836 5.65581416 5 4.34418584 5 4.34418584 9.69125259 2.61043182 8.70204733 2 9.9617777 4.34418584 11.2993161 4.34418584 24 5.65581416 24 5.65581416 13.9110077 8 12.5734694"></polygon>
                                </g>
                                <text id="Welcome" transform="translate(16.392305, 9.464102) rotate(-30.000000) translate(-16.392305, -9.464102) " font-family="SignPainter-HouseScript, SignPainter" font-size="8" font-style="condensed" font-weight="normal" fill="#000000">
                                    <tspan x="4.39230485" y="11.4641016">Welcome</tspan>
                                </text>
                                <text id="To" transform="translate(26.214102, 11.031089) rotate(-30.000000) translate(-26.214102, -11.031089) " font-family="SignPainter-HouseScript, SignPainter" font-size="8" font-style="condensed" font-weight="normal" fill="#000000">
                                    <tspan x="22.2141016" y="13.5310889">To</tspan>
                                </text>
                                <text id="Est.-1882" font-family="Palatino-Roman, Palatino" font-size="3" font-weight="normal" fill="#000000">
                                    <tspan x="47" y="34">Est. 1882</tspan>
                                </text>
                            </g>
                        </g>
                    </g>
                </g>
                <g id="coffee-shop" transform="translate(19.000000, 572.000000)">
                    <g id="Group" transform="translate(2.000000, 2.000000)">
                        <polygon id="Path" fill="#986E62" points="7.19985366 6.92211863 64.799561 6.92211863 65.2682927 6.92211863 65.2682927 0.168337983 6.73141463 0.168337983 6.73141463 6.92211863"></polygon>
                        <g transform="translate(0.000000, 6.753781)" fill="#54BA9D" id="Path">
                            <polygon points="71.9997073 13.6757304 65.2682927 0.168337983 6.73141463 0.168337983 0 13.6757304"></polygon>
                            <polygon points="71.9997073 13.6757304 0 13.6757304 0 20.4300176 6.73141463 20.4300176 50.6341463 20.4300176 65.2682927 20.4300176 71.9997073 20.4300176"></polygon>
                        </g>
                        <path d="M50.6341463,27.1837983 L6.73141463,27.1837983 L6.73141463,74.4602628 L39.395561,74.4602628 L50.6341463,74.4602628 L50.6341463,40.6913596 L50.6341463,27.1837983 L50.6341463,27.1837983 Z M34.5362927,40.6913596 L37.4634146,40.6913596 C39.0731707,40.6913596 40.3899512,42.2107914 40.3899512,44.0682499 C40.3899512,45.9258773 39.0731707,47.4449714 37.4634146,47.4449714 L34.5362927,47.4449714 C34.5362927,51.1597196 31.902439,54.198752 28.6829268,54.198752 L25.7558049,54.198752 C22.5362927,54.198752 19.9021463,51.1597196 19.9021463,47.4449714 L19.9021463,40.6913596 L34.5362927,40.6913596 Z" id="Shape" fill="#FFDAAE" fill-rule="nonzero"></path>
                        <g transform="translate(50.634146, 27.015123)" fill="#96C8EB">
                            <rect id="Rectangle" x="0" y="0.168675672" width="14.6341463" height="13.5075613"></rect>
                            <polygon id="Path" points="14.6341463 13.676237 0 13.676237 0 47.4448025 14.1657073 47.4451402 14.6341463 47.4451402"></polygon>
                        </g>
                        <path d="M40.3899512,44.0682499 C40.3899512,42.2107914 39.0731707,40.6913596 37.4634146,40.6913596 L34.5362927,40.6913596 L34.5362927,47.4449714 L37.4634146,47.4449714 C39.0731707,47.4449714 40.3899512,45.9258773 40.3899512,44.0682499 Z" id="Path" fill="#FFDAAE"></path>
                        <path d="M34.5362927,47.4449714 L34.5362927,40.6913596 L19.9021463,40.6913596 L19.9021463,47.4449714 C19.9021463,51.1597196 22.5362927,54.198752 25.7558049,54.198752 L28.6829268,54.198752 C31.902439,54.198752 34.5362927,51.1597196 34.5362927,47.4449714 Z" id="Path" fill="#986E62"></path>
                    </g>
                    <g id="Group" fill="#000001">
                        <path d="M74.9988281,21.964395 C74.9985352,21.927647 74.9964844,21.8910669 74.9939941,21.8546545 C74.9928223,21.8353576 74.9922363,21.8157251 74.990332,21.796596 C74.9872559,21.763204 74.9819824,21.7298119 74.9771484,21.6965877 C74.9737793,21.6742705 74.9711426,21.6517854 74.9671875,21.6298037 C74.9620605,21.6029558 74.9551758,21.5762758 74.9491699,21.5494279 C74.9425781,21.5217411 74.9365723,21.4938864 74.9291016,21.466703 C74.9230957,21.4460637 74.915918,21.42576 74.9093262,21.4054563 C74.8990723,21.3730711 74.8886719,21.3405181 74.8766602,21.3091397 C74.8700684,21.2920242 74.8623047,21.2750765 74.855127,21.257961 C74.8410645,21.2245689 74.8268555,21.1911769 74.8110352,21.1589595 C74.8086914,21.1540933 74.8070801,21.1490594 74.8044434,21.1441932 L68.2612793,8.10838673 L68.2612793,1.84528639 C68.2612793,0.918532117 67.6053223,0.167295674 66.7964355,0.167295674 L8.20268555,0.167295674 C7.39365234,0.167295674 6.7378418,0.918532117 6.7378418,1.84528639 L6.7378418,8.10922572 L0.194824219,21.1445288 C0.192480469,21.149395 0.190869141,21.1544289 0.188232422,21.1592951 C0.172558594,21.1913447 0.158203125,21.2249045 0.144140625,21.2582966 C0.136962891,21.2754121 0.129199219,21.292192 0.122753906,21.3094753 C0.110742188,21.3410215 0.100488281,21.3734067 0.0900878906,21.4057919 C0.0834960938,21.4260956 0.0763183594,21.4463993 0.0706054688,21.4670386 C0.0628417969,21.494222 0.0568359375,21.5220767 0.0505371094,21.5497635 C0.0442382813,21.5764436 0.0373535156,21.6031236 0.0325195313,21.6301393 C0.0285644531,21.6522888 0.0256347656,21.6747738 0.0225585938,21.6969233 C0.0174316406,21.7301475 0.0123046875,21.7633718 0.00908203125,21.7967638 C0.00732421875,21.8157251 0.00673828125,21.8353576 0.00541992188,21.8549901 C0.00307617188,21.8915702 0.00087890625,21.9281504 0.0005859375,21.9645628 C0.0005859375,21.9701002 1.90819582e-16,21.9754698 1.90819582e-16,21.981175 L1.90819582e-16,28.6933056 C1.90819582e-16,29.6198921 0.655810547,30.3712963 1.46484375,30.3712963 L6.73798828,30.3712963 L6.73798828,73.9990549 L5.70776367,73.9990549 C4.89887695,73.9990549 4.24291992,74.7504591 4.24291992,75.6770456 C4.24291992,76.6037999 4.89887695,77.3550363 5.70776367,77.3550363 L8.19711914,77.3550363 C8.19916992,77.3550363 8.20078125,77.3553719 8.20283203,77.3553719 L66.3279785,77.3553719 L66.796875,77.3553719 L69.2916504,77.3553719 C70.1006836,77.3553719 70.7564941,76.6039677 70.7564941,75.6773812 C70.7564941,74.7507947 70.1006836,73.9993905 69.2916504,73.9993905 L68.2617188,73.9993905 L68.2617188,30.3711285 L73.5348633,30.3711285 C74.34375,30.3711285 74.999707,29.6197243 74.999707,28.6931378 L74.999707,21.9810072 C74.999707,21.9756376 74.9988281,21.9701002 74.9988281,21.964395 Z M9.05024414,10.23524 L36.0351563,10.23524 L36.0351563,20.3030164 L3.99682617,20.3030164 L9.05024414,10.23524 Z M38.9648438,10.23524 L65.9494629,10.23524 L71.0028809,20.3030164 L38.9648438,20.3030164 L38.9648438,10.23524 Z M9.66767578,3.5232771 L65.3317383,3.5232771 L65.3317383,6.87925853 L9.66767578,6.87925853 L9.66767578,3.5232771 L9.66767578,3.5232771 Z M2.9296875,23.6589979 L36.0351563,23.6589979 L36.0351563,27.0151471 L2.9296875,27.0151471 L2.9296875,23.6589979 Z M13.0158691,30.3711285 L13.0158691,32.049287 C13.0158691,32.9758735 13.6716797,33.7272777 14.4807129,33.7272777 C15.2894531,33.7272777 15.9455566,32.9758735 15.9455566,32.049287 L15.9455566,30.3711285 L19.2936035,30.3711285 L19.2936035,32.049287 C19.2936035,32.9758735 19.949707,33.7272777 20.7584473,33.7272777 C21.5674805,33.7272777 22.223291,32.9758735 22.223291,32.049287 L22.223291,30.3711285 L25.5714844,30.3711285 L25.5714844,32.049287 C25.5714844,32.9758735 26.2272949,33.7272777 27.0363281,33.7272777 C27.8450684,33.7272777 28.5011719,32.9758735 28.5011719,32.049287 L28.5011719,30.3711285 L31.8496582,30.3711285 L31.8496582,32.049287 C31.8496582,32.9758735 32.5054688,33.7272777 33.314502,33.7272777 C34.1232422,33.7272777 34.7793457,32.9758735 34.7793457,32.049287 L34.7793457,30.3711285 L37.4941406,30.3711285 C37.4961914,30.3711285 37.4978027,30.3714641 37.4998535,30.3714641 C37.5016113,30.3714641 37.5035156,30.3711285 37.5055664,30.3711285 L38.1272461,30.3711285 L38.1272461,32.049287 C38.1272461,32.9758735 38.7832031,33.7272777 39.5920898,33.7272777 C40.401123,33.7272777 41.0569336,32.9758735 41.0569336,32.049287 L41.0569336,30.3711285 L44.405127,30.3711285 L44.405127,32.049287 C44.405127,32.9758735 45.0612305,33.7272777 45.8699707,33.7272777 C46.6790039,33.7272777 47.3348145,32.9758735 47.3348145,32.049287 L47.3348145,30.3711285 L50.6835938,30.3711285 L50.6835938,73.9992227 L9.66767578,73.9992227 L9.66767578,30.3711285 L13.0158691,30.3711285 Z M53.6132813,73.9992227 L53.6132813,60.575297 L55.078125,60.575297 C55.8871582,60.575297 56.5429688,59.8238927 56.5429688,58.8973063 C56.5429688,57.9707198 55.8871582,57.2193155 55.078125,57.2193155 L53.6132813,57.2193155 L53.6132813,43.7953898 L65.3320313,43.7953898 L65.3320313,73.9992227 L53.6132813,73.9992227 Z M65.3320313,40.4394084 L53.6132813,40.4394084 L53.6132813,30.3711285 L65.3320313,30.3711285 L65.3320313,40.4394084 Z M72.0700195,27.0151471 L38.9648438,27.0151471 L38.9648438,23.6589979 L72.0700195,23.6589979 L72.0700195,27.0151471 Z" id="Shape" fill-rule="nonzero"></path>
                        <path d="M1.49912109,73.9988871 L1.46484375,73.9988871 C0.655810547,73.9988871 0,74.7502913 0,75.6768778 C0,76.6036321 0.655810547,77.3548685 1.46484375,77.3548685 L1.49912109,77.3548685 C2.30800781,77.3548685 2.96396484,76.6036321 2.96396484,75.6768778 C2.96396484,74.7502913 2.30800781,73.9988871 1.49912109,73.9988871 Z" id="Path"></path>
                        <path d="M27.2458008,57.2191477 L30.1757813,57.2191477 C33.7126465,57.2191477 36.6717773,54.3321647 37.3523438,50.5071849 L38.9648438,50.5071849 C41.3878418,50.5071849 43.359082,48.2491128 43.359082,45.4733805 C43.359082,42.6976483 41.3878418,40.4394084 38.9648438,40.4394084 L36.0348633,40.4394084 L21.3864258,40.4394084 C20.5776855,40.4394084 19.921582,41.1908126 19.921582,42.1173991 L19.921582,48.8291942 C19.921582,53.4554146 23.2072266,57.2191477 27.2458008,57.2191477 Z M40.4293945,45.4733805 C40.4293945,46.3986246 39.7725586,47.1512035 38.9648438,47.1512035 L37.499707,47.1512035 L37.499707,43.7953898 L38.9648438,43.7953898 C39.7725586,43.7953898 40.4293945,44.5481365 40.4293945,45.4733805 Z M22.8512695,43.7953898 L34.5700195,43.7953898 L34.5700195,48.8291942 C34.5700195,51.6049264 32.5987793,53.8631663 30.1757813,53.8631663 L27.2458008,53.8631663 C24.8228027,53.8631663 22.8512695,51.6049264 22.8512695,48.8291942 L22.8512695,43.7953898 Z" id="Shape" fill-rule="nonzero"></path>
                        <path d="M73.5348633,73.9992227 L73.500293,73.9992227 C72.6912598,73.9992227 72.0354492,74.7506269 72.0354492,75.6772134 C72.0354492,76.6037999 72.6912598,77.3552041 73.500293,77.3552041 L73.5348633,77.3552041 C74.34375,77.3552041 74.999707,76.6037999 74.999707,75.6772134 C74.999707,74.7506269 74.34375,73.9992227 73.5348633,73.9992227 Z" id="Path"></path>
                        <path d="M38.9648438,60.575297 L38.9302734,60.575297 C38.1212402,60.575297 37.4654297,61.3267012 37.4654297,62.2532877 C37.4654297,63.1798742 38.1212402,63.9312784 38.9302734,63.9312784 L38.9648438,63.9312784 C39.773584,63.9312784 40.4296875,63.1798742 40.4296875,62.2532877 C40.4296875,61.3267012 39.773584,60.575297 38.9648438,60.575297 Z" id="Path"></path>
                        <path d="M34.7216309,60.5747936 L24.3161133,60.5747936 C23.5070801,60.5747936 22.8512695,61.3261978 22.8512695,62.2527843 C22.8512695,63.1793708 23.5070801,63.930775 24.3161133,63.930775 L34.7216309,63.930775 C35.5306641,63.930775 36.1864746,63.1793708 36.1864746,62.2527843 C36.1864746,61.3261978 35.5308105,60.5747936 34.7216309,60.5747936 Z" id="Path"></path>
                    </g>
                </g>
                <g id="barbershop" transform="translate(228.000000, 582.000000)">
                    <g id="Group" transform="translate(2.000000, 2.000000)">
                        <polygon id="Path" fill="#54BA9D" points="6.73141463 5.97998925 36 5.97998925 65.2682927 5.97998925 65.2682927 0.14556524 6.73141463 0.14556524"></polygon>
                        <g transform="translate(0.000000, 5.834278)" fill="#986E62" id="Path">
                            <polygon points="36 11.8142674 36 0.145711097 6.73141463 0.145711097 0 11.8142674"></polygon>
                            <polygon points="36 0.145711097 36 11.8142674 71.9997073 11.8142674 65.2682927 0.145711097"></polygon>
                            <polygon points="36 11.8142674 0 11.8142674 0 17.6483997 6.73141463 17.6483997 13.0031707 17.6483997 19.2747805 17.6483997 28.6829268 17.6483997 36 17.6483997"></polygon>
                            <polygon points="36 11.8142674 36 17.6483997 38.0901951 17.6483997 44.3620976 17.6483997 50.6341463 17.6483997 65.2682927 17.6483997 71.9997073 17.6483997 71.9997073 11.8142674"></polygon>
                        </g>
                        <path d="M44.3620976,23.4826779 L36,23.4826779 L28.6829268,23.4826779 L28.6829268,30.7758173 C31.097561,30.7758173 33.072878,32.7447403 33.072878,35.15138 L33.072878,36.6100954 L33.072878,46.1430142 L33.072878,52.6542145 C33.072878,55.0607084 31.097561,57.0297773 28.6829268,57.0297773 L28.6829268,64.3229167 L39.395561,64.3229167 L50.6341463,64.3229167 L50.6341463,49.7372213 L50.6341463,35.15138 L50.6341463,23.4826779 L44.3620976,23.4826779 Z" id="Shape" fill="#FF9D21" fill-rule="nonzero"></path>
                        <path d="M33.072878,35.15138 C33.072878,32.7447403 31.097561,30.7758173 28.6826341,30.7758173 C26.268,30.7758173 24.2923902,32.7447403 24.2923902,35.15138 L24.2923902,41.6625803 L33.072878,36.6100954 L33.072878,35.15138 Z" id="Path" fill="#FF5A5A"></path>
                        <polygon id="Path" fill="#FFDAAE" points="33.072878 36.6100954 24.2923902 41.6625803 24.2923902 51.1957908 33.072878 46.1430142"></polygon>
                        <path d="M33.072878,46.1430142 L24.2923902,51.1957908 L24.2923902,52.6543604 C24.2923902,55.0608542 26.268,57.0299231 28.6829268,57.0299231 C31.097561,57.0299231 33.072878,55.0610001 33.072878,52.6543604 L33.072878,46.1430142 Z" id="Path" fill="#96C8EB"></path>
                        <path d="M24.2923902,51.1957908 L24.2923902,41.6625803 L24.2923902,35.15138 C24.2923902,32.7447403 26.268,30.7758173 28.6829268,30.7758173 L28.6829268,23.4826779 L19.2747805,23.4826779 L13.0031707,23.4826779 L6.73141463,23.4826779 L6.73141463,64.3229167 L28.6829268,64.3229167 L28.6829268,57.0297773 C26.268,57.0297773 24.2923902,55.0608542 24.2923902,52.6542145 L24.2923902,51.1957908 Z" id="Shape" fill="#FF9D21" fill-rule="nonzero"></path>
                        <g transform="translate(50.634146, 23.337113)" fill="#96C8EB">
                            <rect id="Rectangle" x="0" y="0.145711097" width="14.6341463" height="11.6685563"></rect>
                            <polygon id="Path" points="14.6341463 11.8144133 0 11.8142674 0 26.4001087 0 40.9855123 14.1657073 40.985804 14.6341463 40.985804"></polygon>
                        </g>
                    </g>
                    <g id="Group" fill="#000001">
                        <path d="M74.9988281,19.2665195 C74.9985352,19.2348745 74.9964844,19.2030823 74.9939941,19.1714372 C74.9928223,19.1539221 74.9922363,19.1362597 74.990332,19.119039 C74.9872559,19.0910736 74.9822754,19.0631082 74.9777344,19.0351429 C74.9740723,19.0140952 74.9711426,18.9930476 74.9668945,18.9724416 C74.9623535,18.9509524 74.9560547,18.9297576 74.9506348,18.9085628 C74.943457,18.8819221 74.9368652,18.8551342 74.9286621,18.8289351 C74.9238281,18.8136277 74.9175293,18.7987619 74.9121094,18.7836017 C74.9009766,18.7521039 74.8895508,18.7207532 74.8760742,18.6901385 C74.8709473,18.6782165 74.8646484,18.6665887 74.8592285,18.6546667 C74.8438477,18.6218442 74.8277344,18.589316 74.8100098,18.5578182 C74.808252,18.5545801 74.8067871,18.5510476 74.8048828,18.5476623 L68.2617188,7.11291775 L68.2617188,1.61845887 C68.2617188,0.805549784 67.6057617,0.146597403 66.796875,0.146597403 L8.203125,0.146597403 C7.3940918,0.146597403 6.73828125,0.805549784 6.73828125,1.61845887 L6.73828125,7.11335931 L0.194824219,18.5478095 C0.193066406,18.5511948 0.191748047,18.5545801 0.189697266,18.5579654 C0.171972656,18.5894632 0.156298828,18.6219913 0.140771484,18.6548139 C0.135058594,18.6667359 0.128759766,18.6783636 0.123632813,18.6902857 C0.110449219,18.7209004 0.0987304687,18.7522511 0.0875976563,18.7837489 C0.0821777344,18.7989091 0.076171875,18.8137749 0.0710449219,18.8290823 C0.0626953125,18.8551342 0.05625,18.8819221 0.0493652344,18.90871 C0.0436523438,18.9300519 0.0376464844,18.9510996 0.0331054688,18.9725887 C0.0285644531,18.993342 0.0256347656,19.0145368 0.022265625,19.0355844 C0.0174316406,19.0634026 0.0125976563,19.0912208 0.009375,19.1191861 C0.0076171875,19.1365541 0.00673828125,19.1543636 0.00571289063,19.1718788 C0.00336914063,19.2035238 0.001171875,19.2351688 0.00087890625,19.2668139 C0.00087890625,19.271671 0.00029296875,19.276381 0.00029296875,19.2812381 L0.00029296875,25.1688312 C0.00029296875,25.9817403 0.656103516,26.6406926 1.46513672,26.6406926 L6.73828125,26.6406926 L6.73828125,64.9090909 L5.70805664,64.9090909 C4.89916992,64.9090909 4.24321289,65.5680433 4.24321289,66.3809524 C4.24321289,67.1938615 4.89916992,67.8528139 5.70805664,67.8528139 L8.19741211,67.8528139 C8.19946289,67.8528139 8.20107422,67.8531082 8.203125,67.8531082 L66.3282715,67.8531082 L66.796875,67.8531082 L69.2916504,67.8531082 C70.1006836,67.8531082 70.7564941,67.1941558 70.7564941,66.3812468 C70.7564941,65.5683377 70.1006836,64.9093853 69.2916504,64.9093853 L68.2617188,64.9093853 L68.2617188,26.6403983 L73.5348633,26.6403983 C74.34375,26.6403983 74.999707,25.9814459 74.999707,25.1685368 L74.999707,19.2809437 C74.999707,19.2760866 74.9988281,19.2713766 74.9988281,19.2665195 Z M9.05024414,8.97820779 L36.0351563,8.97820779 L36.0351563,17.8090823 L3.99682617,17.8090823 L9.05024414,8.97820779 Z M38.9648437,8.97820779 L65.9494629,8.97820779 L71.0025879,17.8090823 L38.9648437,17.8090823 L38.9648437,8.97820779 Z M9.66767578,3.09032035 L65.3317383,3.09032035 L65.3317383,6.03448485 L9.66767578,6.03448485 L9.66767578,3.09032035 L9.66767578,3.09032035 Z M2.9296875,20.7528052 L36.0351562,20.7528052 L36.0351562,23.6966753 L2.9296875,23.6966753 L2.9296875,20.7528052 Z M39.5922363,29.5842684 C40.4012695,29.5842684 41.0570801,28.925316 41.0570801,28.1124069 L41.0570801,26.6403983 L44.4052734,26.6403983 L44.4052734,28.1124069 C44.4052734,28.925316 45.061377,29.5842684 45.8701172,29.5842684 C46.6791504,29.5842684 47.3349609,28.925316 47.3349609,28.1124069 L47.3349609,26.6403983 L50.6835938,26.6403983 L50.6835938,64.9090909 L31.640625,64.9090909 L31.640625,60.3068745 C34.1648438,59.6516017 36.0348633,57.3441645 36.0348633,54.6059134 L36.0348633,36.9435758 C36.0348633,34.2054719 34.1648438,31.8980346 31.640625,31.2427619 L31.640625,26.6403983 L38.1273926,26.6403983 L38.1273926,28.1124069 C38.1273926,28.925316 38.7834961,29.5842684 39.5922363,29.5842684 Z M53.6132813,64.9090909 L53.6132813,53.1341991 L55.078125,53.1341991 C55.8871582,53.1341991 56.5429688,52.4752468 56.5429688,51.6623377 C56.5429688,50.8494286 55.8871582,50.1904762 55.078125,50.1904762 L53.6132813,50.1904762 L53.6132813,38.4154372 L65.3320312,38.4154372 L65.3320312,64.9090909 L53.6132813,64.9090909 Z M30.1757812,34 C31.7910645,34 33.1051758,35.3204069 33.1051758,36.9435758 L33.1051758,37.5658788 L27.2458008,40.9648485 L27.2458008,36.9435758 C27.2458008,35.3204069 28.5602051,34 30.1757812,34 Z M27.2458008,44.3638182 L33.1051758,40.9648485 L33.1051758,47.185671 L27.2458008,50.5849351 L27.2458008,44.3638182 Z M27.2458008,53.9839048 L33.1051758,50.5846407 L33.1051758,54.6059134 C33.1051758,56.2289351 31.7910645,57.5494892 30.1757812,57.5494892 L30.1754883,57.5494892 C28.5602051,57.5494892 27.2458008,56.2290823 27.2458008,54.6059134 L27.2458008,53.9839048 Z M13.0158691,26.6403983 L13.0158691,28.1124069 C13.0158691,28.925316 13.6716797,29.5842684 14.4807129,29.5842684 C15.2894531,29.5842684 15.9455566,28.925316 15.9455566,28.1124069 L15.9455566,26.6403983 L19.2936035,26.6403983 L19.2936035,28.1124069 C19.2936035,28.925316 19.949707,29.5842684 20.7584473,29.5842684 C21.5674805,29.5842684 22.223291,28.925316 22.223291,28.1124069 L22.223291,26.6403983 L28.7109375,26.6403983 L28.7109375,31.2426147 C26.1864258,31.8977403 24.3161133,34.2053247 24.3161133,36.9435758 L24.3161133,54.6059134 C24.3161133,57.3441645 26.1864258,59.6516017 28.7109375,60.3068745 L28.7109375,64.9090909 L9.66767578,64.9090909 L9.66767578,26.6403983 L13.0158691,26.6403983 Z M65.3320312,35.4718615 L53.6132813,35.4717143 L53.6132813,26.6403983 L65.3320312,26.6403983 L65.3320312,35.4718615 Z M72.0700195,23.6966753 L38.9648437,23.6966753 L38.9648437,20.7528052 L72.0700195,20.7528052 L72.0700195,23.6966753 Z" id="Shape" fill-rule="nonzero"></path>
                        <path d="M1.49912109,64.9087965 L1.46484375,64.9087965 C0.655810547,64.9087965 0,65.5677489 0,66.380658 C0,67.1935671 0.655810547,67.8525195 1.46484375,67.8525195 L1.49912109,67.8525195 C2.30800781,67.8525195 2.96396484,67.1935671 2.96396484,66.380658 C2.96396484,65.5677489 2.30800781,64.9087965 1.49912109,64.9087965 Z" id="Path"></path>
                        <path d="M73.5348633,64.9090909 L73.500293,64.9090909 C72.6912598,64.9090909 72.0354492,65.5680433 72.0354492,66.3809524 C72.0354492,67.1938615 72.6912598,67.8528139 73.500293,67.8528139 L73.5348633,67.8528139 C74.34375,67.8528139 74.999707,67.1938615 74.999707,66.3809524 C74.999707,65.5680433 74.34375,64.9090909 73.5348633,64.9090909 Z" id="Path"></path>
                    </g>
                </g>
            </g>
        </g>
    </g>
</svg>