<?xml version="1.0" encoding="UTF-8"?>
<svg width="1439px" height="800px" viewBox="0 0 1439 800" version="1.1" xmlns="http://www.w3.org/2000/svg" xmlns:xlink="http://www.w3.org/1999/xlink">
    <!-- Generator: Sketch 54.1 (76490) - https://sketchapp.com -->
    <title>lufkin-landscape-desktop</title>
    <desc>Created with Sketch.</desc>
    <g id="Welcome" stroke="none" stroke-width="1" fill="none" fill-rule="evenodd">
        <g id="Desktop-HD" transform="translate(-1.000000, -224.000000)">
            <g id="lufkin-landscape-desktop" transform="translate(1.000000, 224.000000)">
                <rect id="sky" fill="#BEE5F4" x="0" y="0" width="1440" height="800"></rect>
                <g id="trees" transform="translate(1041.000000, 675.000000)">
                    <circle id="Oval" fill="#88C057" cx="33.5" cy="68.5" r="33.5"></circle>
                    <path d="M78.5555746,0 L61.5702804,50.2598629 C64.7585499,55.3634399 66.630985,61.3735229 66.630985,67.8317373 C66.630985,79.7110619 60.377565,90.1077116 51,96 L78.5555746,96 L111,96 L78.5555746,0 Z" id="Path" fill="#659C35"></path>
                    <path d="M26,82 L33,89" id="Path" stroke="#6C4127" stroke-width="2" stroke-linecap="round"></path>
                    <path d="M41,82 L34,89" id="Path" stroke="#6C4127" stroke-width="2" stroke-linecap="round"></path>
                    <path d="M33.5,89 L33.5,125" id="Path" stroke="#6C4127" stroke-width="2" stroke-linecap="round"></path>
                    <path d="M72,82 L79,89" id="Path" stroke="#6C4127" stroke-width="2" stroke-linecap="round"></path>
                    <path d="M87,82 L80,89" id="Path" stroke="#6C4127" stroke-width="2" stroke-linecap="round"></path>
                    <path d="M79.5,89 L79.5,125" id="Path" stroke="#6C4127" stroke-width="2" stroke-linecap="round"></path>
                </g>
                <g id="trees-copy" transform="translate(290.000000, 675.000000)">
                    <circle id="Oval" fill="#88C057" cx="33.5" cy="68.5" r="33.5"></circle>
                    <path d="M78.5555746,0 L61.5702804,50.2598629 C64.7585499,55.3634399 66.630985,61.3735229 66.630985,67.8317373 C66.630985,79.7110619 60.377565,90.1077116 51,96 L78.5555746,96 L111,96 L78.5555746,0 Z" id="Path" fill="#659C35"></path>
                    <path d="M26,82 L33,89" id="Path" stroke="#6C4127" stroke-width="2" stroke-linecap="round"></path>
                    <path d="M41,82 L34,89" id="Path" stroke="#6C4127" stroke-width="2" stroke-linecap="round"></path>
                    <path d="M33.5,89 L33.5,125" id="Path" stroke="#6C4127" stroke-width="2" stroke-linecap="round"></path>
                    <path d="M72,82 L79,89" id="Path" stroke="#6C4127" stroke-width="2" stroke-linecap="round"></path>
                    <path d="M87,82 L80,89" id="Path" stroke="#6C4127" stroke-width="2" stroke-linecap="round"></path>
                    <path d="M79.5,89 L79.5,125" id="Path" stroke="#6C4127" stroke-width="2" stroke-linecap="round"></path>
                </g>
                <g id="forest" transform="translate(512.000000, 413.000000)">
                    <path d="M222,157.793213 C222,149.817383 210.512893,135.335205 214.908806,129.362061 L214.908806,35.8610842 C214.908806,16.1389158 198.953619,0 179.455972,0 C159.955187,0 144,16.1389158 144,35.8610842 L144,100.670654 C148.395914,106.646972 144,128.041748 144,136.011231 L144,208 C150.473068,199.198975 174.931413,193.375 186.544028,193.375 C198.166057,193.375 208.435737,199.18628 214.908806,208 L222,157.793213 Z" id="Path" fill="#1A9172"></path>
                    <path d="M180.001549,186 C176.135207,186 173,182.76574 173,178.780441 L173,63.2227549 C173,59.2342602 176.135207,56 180.001549,56 C183.864793,56 187,59.2342602 187,63.2227549 L187,178.780441 C187,182.76574 183.864793,186 180.001549,186 Z" id="Path" fill="#BE7C6D"></path>
                    <path d="M180.002322,185 C178.209159,185 176.419091,184.315487 175.053313,182.949558 C172.315562,180.214602 172.315562,175.788496 175.053313,173.05354 L189.051764,159.05354 C191.786418,156.315487 196.208937,156.315487 198.946688,159.05354 C201.684437,161.791593 201.684437,166.214602 198.946688,168.952655 L184.948236,182.949558 C183.585555,184.315487 181.79239,185 180.002322,185 Z" id="Path" fill="#BE7C6D"></path>
                    <path d="M180.002322,121 C178.209159,121 176.419091,120.312409 175.053313,118.949615 C172.315562,116.211637 172.315562,111.788751 175.053313,109.050773 L189.051764,95.0511603 C191.786418,92.3162799 196.208937,92.3162799 198.946688,95.0511603 C201.684437,97.7891377 201.684437,102.212024 198.946688,104.950002 L184.948236,118.949615 C183.585555,120.312409 181.79239,121 180.002322,121 Z" id="Path" fill="#BE7C6D"></path>
                    <path d="M179.000774,151 C177.20761,151 175.417542,150.315487 174.051764,148.949558 L160.053313,134.949558 C157.315562,132.214602 157.315562,127.788496 160.053313,125.05354 C162.791063,122.315487 167.213583,122.315487 169.951333,125.05354 L183.946688,139.05354 C186.684437,141.788496 186.684437,146.211505 183.946688,148.949558 C182.584007,150.315487 180.790842,151 179.000774,151 Z" id="Path" fill="#BE7C6D"></path>
                    <path d="M71.0015933,29 C51.2007168,29 35,45.1389158 35,64.8642578 L35,158.10498 C35,158.349365 35.073277,158.57788 35.073277,158.828613 C37.3831143,158.362061 39.7598563,229.830322 42.2003187,229.830322 C61.755874,229.830322 77.7335724,196.095703 78.1286342,215.484619 C78.1509362,215.478271 78.1796099,193.242431 78.1987254,193.236083 L107,237 L107,64.8642578 C107,45.1389158 90.7992832,29 71.0015933,29 Z" id="Path" fill="#3D6F44"></path>
                    <path d="M343.998407,29 C324.200717,29 308,45.1259512 308,64.8354475 L308,87.0661097 L315.200318,243.993657 C315.22262,244 315.251294,243.993657 315.273596,244 C315.668657,224.629831 353.244126,193.833545 372.799681,193.833545 C375.240144,193.833545 377.616886,158.258142 379.926723,158.72432 C379.926723,158.473788 380,158.245456 380,158.001268 L380,64.8354475 C380,45.1259512 363.799283,29 343.998407,29 Z" id="Path" fill="#61B872"></path>
                    <path d="M264.799681,287.135741 L264.799681,122.385497 C258.75906,117.818359 251.319793,115 243.198726,115 C223.401035,115 207.200319,131.135741 207.200319,150.861083 L207.200319,194.155273 C211.663879,200.128418 200,207.437744 200,215.413574 L200,287.135741 C200,292.632812 213.040223,297.787109 210.800477,302.449463 C216.602151,314.5354 228.91597,323 243.198726,323 C254.993229,323 265.42732,317.198241 272,308.397216 C267.536439,302.420898 264.799681,295.111572 264.799681,287.135741 L264.799681,287.135741 Z" id="Path" fill="#3D6F44"></path>
                    <path d="M43,323 C23.2014336,323 7,306.857763 7,287.128364 L7,193.868461 C7,174.142236 23.2014336,158 43,158 C62.8017531,158 79,174.142236 79,193.868461 L79,287.128364 C79,306.857763 62.8017531,323 43,323 Z" id="Path" fill="#61B872"></path>
                    <path d="M43.0003872,271 C41.2102203,271 39.4169564,270.312408 38.0511029,268.949614 C35.316299,266.211636 35.316299,261.78875 38.0511029,259.050773 L52.0503288,245.05116 C54.7882305,242.31628 59.2109948,242.31628 61.9488965,245.05116 C64.6837012,247.789137 64.6837012,252.212024 61.9488965,254.950001 L47.9496706,268.949614 C46.5838171,270.312408 44.7936502,271 43.0003872,271 Z" id="Path" fill="#BE7C6D"></path>
                    <path d="M41.9976775,299 C40.2076097,299 38.414445,298.315487 37.048667,296.949558 L23.0533121,282.949558 C20.3155626,280.214602 20.3155626,275.791593 23.0533121,273.05354 C25.7879656,270.315487 30.2135821,270.315487 32.9482356,273.05354 L46.9466873,287.05354 C49.6844376,289.788496 49.6844376,294.211505 46.9466873,296.949558 C45.5809093,298.315487 43.7908414,299 41.9976775,299 Z" id="Path" fill="#BE7C6D"></path>
                    <path d="M115.002323,271 C113.209158,271 111.419091,270.312408 110.053313,268.949614 C107.315562,266.211636 107.315562,261.78875 110.053313,259.050773 L124.051764,245.05116 C126.786417,242.31628 131.212034,242.31628 133.946687,245.05116 C136.684438,247.789137 136.684438,252.212024 133.946687,254.950001 L119.951333,268.949614 C118.585555,270.312408 116.79239,271 115.002323,271 Z" id="Path" fill="#BE7C6D"></path>
                    <path d="M115.999613,299 C114.206349,299 112.416182,298.315487 111.050329,296.949558 L97.0511035,282.949558 C94.3162988,280.214602 94.3162988,275.791593 97.0511035,273.05354 C99.7890051,270.315487 104.211769,270.315487 106.949671,273.05354 L120.948897,287.05354 C123.683701,289.788496 123.683701,294.211505 120.948897,296.949558 C119.583043,298.315487 117.789779,299 115.999613,299 Z" id="Path" fill="#BE7C6D"></path>
                    <path d="M115.002323,208 C113.209158,208 111.419091,207.315487 110.053313,205.949557 C107.315562,203.211505 107.315562,198.788495 110.053313,196.050443 L124.051764,182.05354 C126.786417,179.315487 131.212034,179.315487 133.946687,182.05354 C136.684438,184.788495 136.684438,189.214602 133.946687,191.949557 L119.951333,205.949557 C118.585555,207.315487 116.79239,208 115.002323,208 Z" id="Path" fill="#BE7C6D"></path>
                    <path d="M115.999613,236 C114.206349,236 112.416182,235.315429 111.050329,233.949387 L97.0511035,219.951323 C94.3162988,217.213043 94.3162988,212.789667 97.0511035,210.051387 C99.7890051,207.316204 104.211769,207.316204 106.949671,210.051387 L120.948897,224.052549 C123.683701,226.787731 123.683701,231.214205 120.948897,233.949387 C119.583043,235.315429 117.789779,236 115.999613,236 Z" id="Path" fill="#BE7C6D"></path>
                    <path d="M179.001593,322 C159.200717,322 143,305.911432 143,286.247626 L143,214.749209 C143,195.085404 159.200717,179 179.001593,179 C198.799283,179 215,195.085404 215,214.749209 L215,286.247626 C215,305.911432 198.799283,322 179.001593,322 Z" id="Path" fill="#61B872"></path>
                    <path d="M180.002322,292 C178.209159,292 176.419091,291.315486 175.053313,289.949557 C172.315562,287.214601 172.315562,282.788495 175.053313,280.053539 L189.051764,266.05354 C191.786418,263.315487 196.208937,263.315487 198.946688,266.05354 C201.684437,268.791593 201.684437,273.214602 198.946688,275.949557 L184.948236,289.949557 C183.585555,291.315486 181.79239,292 180.002322,292 Z" id="Path" fill="#BE7C6D"></path>
                    <path d="M42,354 C38.1376104,354 35,350.793062 35,346.845332 L35,222.154668 C35,218.203772 38.1376104,215 42,215 C45.8654867,215 49,218.203772 49,222.154668 L49,346.845332 C49,350.793062 45.8654867,354 42,354 L42,354 Z" id="Path" fill="#BE7C6D"></path>
                    <path d="M372,323 C391.798566,323 408,306.857763 408,287.128364 L408,193.868461 C408,174.142236 391.798566,158 372,158 C352.198247,158 336,174.142236 336,193.868461 L336,287.128364 C336,306.857763 352.198247,323 372,323 L372,323 Z" id="Path" fill="#1A9172"></path>
                    <path d="M372.999613,271 C371.20635,271 369.416183,270.312408 368.050329,268.949614 L354.051104,254.950001 C351.316299,252.212024 351.316299,247.789137 354.051104,245.05116 C356.789005,242.31628 361.21177,242.31628 363.949671,245.05116 L377.948897,259.050773 C380.683701,261.78875 380.683701,266.211636 377.948897,268.949614 C376.583044,270.312408 374.78978,271 372.999613,271 Z" id="Path" fill="#BE7C6D"></path>
                    <path d="M373.002322,299 C371.209159,299 369.419091,298.315487 368.053313,296.949558 C365.315562,294.211505 365.315562,289.788496 368.053313,287.05354 L382.051764,273.05354 C384.786418,270.315487 389.212034,270.315487 391.946688,273.05354 C394.684437,275.791593 394.684437,280.214602 391.946688,282.949558 L377.951333,296.949558 C376.585555,298.315487 374.79239,299 373.002322,299 Z" id="Path" fill="#BE7C6D"></path>
                    <path d="M299.998406,323 C319.799283,323 336,306.840042 336,287.088982 L336,121.911016 C336,102.159957 319.799283,86 299.998406,86 C280.200717,86 264,102.159957 264,121.911016 L264,287.088982 C264,306.840042 280.200717,323 299.998406,323 L299.998406,323 Z" id="Path" fill="#23A24D"></path>
                    <g id="Group" transform="translate(222.000000, 142.000000)" fill="#BE7C6D">
                        <path d="M79.2088938,244.748819 C75.2620595,244.748819 72.0558498,241.52798 72.0558498,237.563136 L72.0558498,7.63399326 C72.0558498,3.6691493 75.2620595,0.448310116 79.2088938,0.448310116 C83.1588938,0.448310116 86.3619395,3.6691493 86.3619395,7.63399326 L86.3619395,237.563136 C86.3619395,241.52798 83.1588938,244.748819 79.2088938,244.748819 Z" id="Path"></path>
                        <path d="M79.2088938,129.784248 C77.3794872,129.784248 75.5469149,129.078397 74.1511218,127.679415 L59.8481969,113.308048 C57.0502802,110.497365 57.0502802,105.957031 59.8481969,103.146348 C62.6429487,100.338845 67.1658251,100.338845 69.9605769,103.146348 L84.2666667,117.517714 C87.0645833,120.328397 87.0645833,124.868732 84.2666667,127.679415 C82.8708736,129.078397 81.0414661,129.784248 79.2088938,129.784248 Z" id="Path"></path>
                        <path d="M79.2088938,158.5238 C77.3794872,158.5238 75.5469149,157.82113 74.1511218,156.418968 C71.35637,153.608285 71.35637,149.067951 74.1511218,146.260447 L88.4572115,131.88908 C91.2551282,129.078397 95.7748397,129.078397 98.5727564,131.88908 C101.367508,134.699764 101.367508,139.240098 98.5727564,142.047602 L84.2666667,156.418968 C82.8708736,157.82113 81.0414661,158.5238 79.2088938,158.5238 Z" id="Path"></path>
                        <path d="M79.2088938,65.1162791 C77.3794872,65.1162791 75.5469149,64.4136085 74.1511218,63.0114458 L59.8481969,48.6400795 C57.0502802,45.8325765 57.0502802,41.2890621 59.8481969,38.4815591 C62.6429487,35.6708759 67.1658251,35.6708759 69.9605769,38.4815591 L84.2666667,52.849746 C87.0645833,55.6604284 87.0645833,60.2007635 84.2666667,63.0114458 C82.8708736,64.4136085 81.0414661,65.1162791 79.2088938,65.1162791 Z" id="Path"></path>
                        <path d="M79.2088938,93.8558323 C77.3794872,93.8558323 75.5469149,93.1531609 74.1511218,91.7509991 C71.35637,88.943496 71.35637,84.3999816 74.1511218,81.5924786 L88.4572115,67.2211123 C91.2551282,64.4136085 95.7748397,64.4136085 98.5727564,67.2211123 C101.367508,70.0317947 101.367508,74.5721298 98.5727564,77.3828121 L84.2666667,91.7509991 C82.8708736,93.1531609 81.0414661,93.8558323 79.2088938,93.8558323 Z" id="Path"></path>
                        <path d="M21.9877005,208.820403 C18.0408654,208.820403 14.8346557,205.602743 14.8346557,201.63472 L14.8346557,7.63399326 C14.8346557,3.6691493 18.0408654,0.448310116 21.9877005,0.448310116 C25.9377005,0.448310116 29.1407454,3.6691493 29.1407454,7.63399326 L29.1407454,201.63472 C29.1407454,205.602743 25.9377005,208.820403 21.9877005,208.820403 Z" id="Path"></path>
                        <path d="M21.9877005,129.784248 C20.1582931,129.784248 18.3257216,129.078397 16.9330934,127.679415 L2.62700361,113.308048 C-0.170913867,110.497365 -0.170913867,105.957031 2.62700361,103.146348 C5.42175461,100.338845 9.94463182,100.338845 12.7393828,103.146348 L27.0454726,117.517714 C29.8433892,120.328397 29.8433892,124.868732 27.0454726,127.679415 C25.6496795,129.078397 23.8202728,129.784248 21.9877005,129.784248 Z" id="Path"></path>
                        <path d="M21.9877005,65.1162791 C20.1582931,65.1162791 18.3257216,64.4136085 16.9330934,63.0114458 L2.62700361,48.6400795 C-0.170913867,45.8325765 -0.170913867,41.2890621 2.62700361,38.4815591 C5.42175461,35.6708759 9.94463182,35.6708759 12.7393828,38.4815591 L27.0454726,52.849746 C29.8433892,55.6604284 29.8433892,60.2007635 27.0454726,63.0114458 C25.6496795,64.4136085 23.8202728,65.1162791 21.9877005,65.1162791 Z" id="Path"></path>
                        <path d="M150.736178,211.904524 C146.786178,211.904524 143.583133,208.683684 143.583133,204.718841 L143.583133,79.4876453 C143.583133,75.5196221 146.786178,72.3019622 150.736178,72.3019622 C154.683013,72.3019622 157.889223,75.5196221 157.889223,79.4876453 L157.889223,204.718841 C157.889223,208.683684 154.683013,211.904524 150.736178,211.904524 L150.736178,211.904524 Z" id="Path"></path>
                    </g>
                    <path d="M143.799681,287.088982 L143.799681,215.273305 C143.799681,207.287076 146.53644,199.96822 151,193.987287 L151,121.911016 C151,102.159957 134.799283,86 115.001594,86 C95.2007174,86 79,102.159957 79,121.911016 L79,287.088982 C79,306.840042 95.2007174,323 115.001594,323 C129.284349,323 141.598168,314.524364 147.399841,302.422669 C145.160096,297.754237 143.799681,292.59322 143.799681,287.088982 L143.799681,287.088982 Z" id="Path" fill="#23A24D"></path>
                    <path d="M115,370 C111.134514,370 108,366.786409 108,362.830488 L108,149.169512 C108,145.213591 111.134514,142 115,142 C118.86239,142 122,145.213591 122,149.169512 L122,362.830488 C122,366.786409 118.86239,370 115,370 Z" id="Path" fill="#BE7C6D"></path>
                    <path d="M180.001549,370 C176.135207,370 173,366.77344 173,362.794439 L173,244.205562 C173,240.229749 176.135207,237 180.001549,237 C183.864793,237 187,240.229749 187,244.205562 L187,362.794439 C187,366.779816 183.864793,370 180.001549,370 L180.001549,370 Z" id="Path" fill="#BE7C6D"></path>
                    <path d="M320.908513,364.528761 C322.98537,364.528761 324.954091,365.138938 326.84648,366 C333.372836,350.677433 344.657199,345 357.5,345 C370.342801,345 381.620803,350.677433 388.153521,366 C390.045909,365.138938 392.01463,364.528761 394.091487,364.528761 C405.63347,364.528761 415,369.323452 415,387 L300,387 C300,369.323452 309.360169,364.528761 320.908513,364.528761 L320.908513,364.528761 Z" id="Path" fill="#61B872"></path>
                    <path d="M112.908513,364.528761 C114.98537,364.528761 116.954091,365.138938 118.84648,366 C125.372836,350.677433 136.657199,345 149.5,345 C162.342801,345 173.620803,350.677433 180.153521,366 C182.045909,365.138938 184.01463,364.528761 186.091487,364.528761 C197.63347,364.528761 207,369.323452 207,387 L92,387 C92,369.323452 101.360169,364.528761 112.908513,364.528761 L112.908513,364.528761 Z" id="Path" fill="#61B872"></path>
                    <path d="M105,366.350001 C101.965484,365.104867 98.5176084,364.528761 94.7973633,364.528761 C92.7049257,364.528761 90.7214355,365.138938 88.8148496,366 C82.233124,350.677433 70.8705137,345 57.9313662,345 C44.9922178,345 33.6296084,350.677433 27.0478819,366 C25.1412968,365.138938 23.1578066,364.528761 21.0653691,364.528761 C9.42718547,364.528761 0,369.323452 0,387 L94.1372677,387 C94.1372677,374.979204 98.5464473,369.001328 105,366.350001 L105,366.350001 Z" id="Path" fill="#23A24D"></path>
                    <path d="M278.934632,364.528761 C276.842194,364.528761 274.858704,365.138938 272.955322,366 C266.380006,350.677433 255.010986,345 242.068635,345 C229.129486,345 217.766877,350.677433 211.18515,366 C209.281769,365.138938 207.295075,364.528761 205.202637,364.528761 C201.482392,364.528761 198.034516,365.104867 195,366.350001 C201.453553,369.001328 205.862732,374.979204 205.862732,387 L300,387 C300,369.323452 290.572815,364.528761 278.934632,364.528761 L278.934632,364.528761 Z" id="Path" fill="#3D6F44"></path>
                </g>
                <g id="coffee-shop" transform="translate(379.000000, 700.000000)">
                    <g id="Group" transform="translate(2.000000, 2.000000)">
                        <polygon id="Path" fill="#986E62" points="10.5997846 8.86031185 95.3993537 8.86031185 96.0894309 8.86031185 96.0894309 0.215472618 9.91013821 0.215472618 9.91013821 8.86031185"></polygon>
                        <g transform="translate(0.000000, 8.644839)" fill="#54BA9D" id="Path">
                            <polygon points="105.999569 17.504935 96.0894309 0.215472618 9.91013821 0.215472618 0 17.504935"></polygon>
                            <polygon points="105.999569 17.504935 0 17.504935 0 26.1504226 9.91013821 26.1504226 74.5447154 26.1504226 96.0894309 26.1504226 105.999569 26.1504226"></polygon>
                        </g>
                        <path d="M74.5447154,34.7952618 L9.91013821,34.7952618 L9.91013821,95.3091364 L57.9990203,95.3091364 L74.5447154,95.3091364 L74.5447154,52.0849402 L74.5447154,34.7952618 L74.5447154,34.7952618 Z M50.8450976,52.0849402 L55.1544715,52.0849402 C57.5243902,52.0849402 59.4629837,54.0298129 59.4629837,56.4073599 C59.4629837,58.7851229 57.5243902,60.7295634 55.1544715,60.7295634 L50.8450976,60.7295634 C50.8450976,65.4844411 46.9674797,69.3744026 42.2276423,69.3744026 L37.9182683,69.3744026 C33.1784309,69.3744026 29.3003821,65.4844411 29.3003821,60.7295634 L29.3003821,52.0849402 L50.8450976,52.0849402 Z" id="Shape" fill="#FFDAAE" fill-rule="nonzero"></path>
                        <g transform="translate(74.544715, 34.579357)" fill="#96C8EB">
                            <rect id="Rectangle" x="0" y="0.21590486" width="21.5447154" height="17.2896785"></rect>
                            <polygon id="Path" points="21.5447154 17.5055833 0 17.5055833 0 60.7293472 20.8550691 60.7297795 21.5447154 60.7297795"></polygon>
                        </g>
                        <path d="M59.4629837,56.4073599 C59.4629837,54.0298129 57.5243902,52.0849402 55.1544715,52.0849402 L50.8450976,52.0849402 L50.8450976,60.7295634 L55.1544715,60.7295634 C57.5243902,60.7295634 59.4629837,58.7851229 59.4629837,56.4073599 Z" id="Path" fill="#FFDAAE"></path>
                        <path d="M50.8450976,60.7295634 L50.8450976,52.0849402 L29.3003821,52.0849402 L29.3003821,60.7295634 C29.3003821,65.4844411 33.1784309,69.3744026 37.9182683,69.3744026 L42.2276423,69.3744026 C46.9674797,69.3744026 50.8450976,65.4844411 50.8450976,60.7295634 Z" id="Path" fill="#986E62"></path>
                    </g>
                    <g id="Group" fill="#000001">
                        <path d="M109.998281,28.1594808 C109.997852,28.112368 109.994844,28.0654703 109.991191,28.0187878 C109.989473,27.9940482 109.988613,27.9688783 109.98582,27.9443538 C109.981309,27.9015435 109.973574,27.8587333 109.966484,27.8161381 C109.961543,27.7875262 109.957676,27.7586992 109.951875,27.7305176 C109.944355,27.6960972 109.934258,27.661892 109.925449,27.6274717 C109.915781,27.5919758 109.906973,27.5562647 109.896016,27.5214141 C109.887207,27.4949535 109.87668,27.4689231 109.867012,27.4428927 C109.851973,27.4013732 109.836719,27.3596386 109.819102,27.3194098 C109.809434,27.2974669 109.798047,27.2757391 109.78752,27.2537961 C109.766895,27.2109858 109.746055,27.1681755 109.722852,27.1268712 C109.719414,27.1206325 109.717051,27.1141787 109.713184,27.10794 L100.116543,10.3953676 L100.116543,2.36575178 C100.116543,1.17760528 99.1544727,0.214481634 97.9681055,0.214481634 L12.0306055,0.214481634 C10.8440234,0.214481634 9.88216797,1.17760528 9.88216797,2.36575178 L9.88216797,10.3964432 L0.285742188,27.1083702 C0.282304688,27.1146089 0.279941406,27.1210627 0.276074219,27.1273014 C0.253085938,27.1683907 0.23203125,27.2114161 0.21140625,27.2542263 C0.200878906,27.2761693 0.189492188,27.297682 0.180039063,27.3198401 C0.162421875,27.360284 0.147382813,27.4018035 0.132128906,27.443323 C0.122460938,27.4693534 0.111933594,27.4953837 0.103554688,27.5218444 C0.0921679688,27.5566949 0.083359375,27.592406 0.0741210938,27.627902 C0.0648828125,27.6621072 0.0547851563,27.6963124 0.0476953125,27.7309478 C0.0418945313,27.7593446 0.0375976563,27.7881716 0.0330859375,27.8165684 C0.0255664063,27.8591635 0.018046875,27.9017587 0.0133203125,27.9445689 C0.0107421875,27.9688783 0.0098828125,27.9940482 0.00794921875,28.019218 C0.00451171875,28.0661157 0.0012890625,28.1130134 0.000859375,28.159696 C0.000859375,28.1667951 1.90819582e-16,28.1736792 1.90819582e-16,28.1809935 L1.90819582e-16,36.7862892 C1.90819582e-16,37.9742206 0.961855469,38.9375594 2.1484375,38.9375594 L9.88238281,38.9375594 L9.88238281,94.8705832 L8.37138672,94.8705832 C7.18501953,94.8705832 6.22294922,95.8339219 6.22294922,97.0218533 C6.22294922,98.2099998 7.18501953,99.1731235 8.37138672,99.1731235 L12.0224414,99.1731235 C12.0254492,99.1731235 12.0278125,99.1735537 12.0308203,99.1735537 L97.2810352,99.1735537 L97.96875,99.1735537 L101.627754,99.1735537 C102.814336,99.1735537 103.776191,98.2102149 103.776191,97.0222836 C103.776191,95.8343522 102.814336,94.8710134 101.627754,94.8710134 L100.117188,94.8710134 L100.117188,38.9373443 L107.851133,38.9373443 C109.0375,38.9373443 109.99957,37.9740055 109.99957,36.7860741 L109.99957,28.1807784 C109.99957,28.1738943 109.998281,28.1667951 109.998281,28.1594808 Z M13.2736914,13.1221025 L52.8515625,13.1221025 L52.8515625,26.0295083 L5.86201172,26.0295083 L13.2736914,13.1221025 Z M57.1484375,13.1221025 L96.7258789,13.1221025 L104.137559,26.0295083 L57.1484375,26.0295083 L57.1484375,13.1221025 Z M14.1792578,4.51702193 L95.8198828,4.51702193 L95.8198828,8.81956222 L14.1792578,8.81956222 L14.1792578,4.51702193 L14.1792578,4.51702193 Z M4.296875,30.3320485 L52.8515625,30.3320485 L52.8515625,34.634804 L4.296875,34.634804 L4.296875,30.3320485 Z M19.0899414,38.9373443 L19.0899414,41.0888295 C19.0899414,42.2767609 20.0517969,43.2400997 21.2383789,43.2400997 C22.4245313,43.2400997 23.3868164,42.2767609 23.3868164,41.0888295 L23.3868164,38.9373443 L28.2972852,38.9373443 L28.2972852,41.0888295 C28.2972852,42.2767609 29.2595703,43.2400997 30.4457227,43.2400997 C31.6323047,43.2400997 32.5941602,42.2767609 32.5941602,41.0888295 L32.5941602,38.9373443 L37.5048438,38.9373443 L37.5048438,41.0888295 C37.5048438,42.2767609 38.4666992,43.2400997 39.6532813,43.2400997 C40.8394336,43.2400997 41.8017188,42.2767609 41.8017188,41.0888295 L41.8017188,38.9373443 L46.712832,38.9373443 L46.712832,41.0888295 C46.712832,42.2767609 47.6746875,43.2400997 48.8612695,43.2400997 C50.0474219,43.2400997 51.009707,42.2767609 51.009707,41.0888295 L51.009707,38.9373443 L54.9914063,38.9373443 C54.9944141,38.9373443 54.9967773,38.9377745 54.9997852,38.9377745 C55.0023633,38.9377745 55.0051563,38.9373443 55.0081641,38.9373443 L55.9199609,38.9373443 L55.9199609,41.0888295 C55.9199609,42.2767609 56.8820313,43.2400997 58.0683984,43.2400997 C59.2549805,43.2400997 60.2168359,42.2767609 60.2168359,41.0888295 L60.2168359,38.9373443 L65.1275195,38.9373443 L65.1275195,41.0888295 C65.1275195,42.2767609 66.0898047,43.2400997 67.275957,43.2400997 C68.4625391,43.2400997 69.4243945,42.2767609 69.4243945,41.0888295 L69.4243945,38.9373443 L74.3359375,38.9373443 L74.3359375,94.8707983 L14.1792578,94.8707983 L14.1792578,38.9373443 L19.0899414,38.9373443 Z M78.6328125,94.8707983 L78.6328125,77.6606371 L80.78125,77.6606371 C81.967832,77.6606371 82.9296875,76.6972984 82.9296875,75.509367 C82.9296875,74.3214356 81.967832,73.3580968 80.78125,73.3580968 L78.6328125,73.3580968 L78.6328125,56.1479357 L95.8203125,56.1479357 L95.8203125,94.8707983 L78.6328125,94.8707983 Z M95.8203125,51.8453954 L78.6328125,51.8453954 L78.6328125,38.9373443 L95.8203125,38.9373443 L95.8203125,51.8453954 Z M105.702695,34.634804 L57.1484375,34.634804 L57.1484375,30.3320485 L105.702695,30.3320485 L105.702695,34.634804 Z" id="Shape" fill-rule="nonzero"></path>
                        <path d="M2.19871094,94.870368 L2.1484375,94.870368 C0.961855469,94.870368 0,95.8337068 0,97.0216382 C0,98.2097847 0.961855469,99.1729083 2.1484375,99.1729083 L2.19871094,99.1729083 C3.38507813,99.1729083 4.34714844,98.2097847 4.34714844,97.0216382 C4.34714844,95.8337068 3.38507813,94.870368 2.19871094,94.870368 Z" id="Path"></path>
                        <path d="M39.9605078,73.3578817 L44.2578125,73.3578817 C49.4452148,73.3578817 53.7852734,69.6566214 54.7834375,64.7528011 L57.1484375,64.7528011 C60.702168,64.7528011 63.5933203,61.8578369 63.5933203,58.2992058 C63.5933203,54.7405747 60.702168,51.8453954 57.1484375,51.8453954 L52.8511328,51.8453954 L31.3667578,51.8453954 C30.1806055,51.8453954 29.2183203,52.8087342 29.2183203,53.9966655 L29.2183203,62.601531 C29.2183203,68.5325828 34.0372656,73.3578817 39.9605078,73.3578817 Z M59.2964453,58.2992058 C59.2964453,59.4854162 58.3330859,60.4502608 57.1484375,60.4502608 L54.9995703,60.4502608 L54.9995703,56.1479357 L57.1484375,56.1479357 C58.3330859,56.1479357 59.2964453,57.1129955 59.2964453,58.2992058 Z M33.5151953,56.1479357 L50.7026953,56.1479357 L50.7026953,62.601531 C50.7026953,66.1601621 47.811543,69.0553414 44.2578125,69.0553414 L39.9605078,69.0553414 C36.4067773,69.0553414 33.5151953,66.1601621 33.5151953,62.601531 L33.5151953,56.1479357 Z" id="Shape" fill-rule="nonzero"></path>
                        <path d="M107.851133,94.8707983 L107.80043,94.8707983 C106.613848,94.8707983 105.651992,95.8341371 105.651992,97.0220684 C105.651992,98.2099998 106.613848,99.1733386 107.80043,99.1733386 L107.851133,99.1733386 C109.0375,99.1733386 109.99957,98.2099998 109.99957,97.0220684 C109.99957,95.8341371 109.0375,94.8707983 107.851133,94.8707983 Z" id="Path"></path>
                        <path d="M57.1484375,77.6606371 L57.0977344,77.6606371 C55.9111523,77.6606371 54.9492969,78.6239759 54.9492969,79.8119073 C54.9492969,80.9998387 55.9111523,81.9631774 57.0977344,81.9631774 L57.1484375,81.9631774 C58.3345898,81.9631774 59.296875,80.9998387 59.296875,79.8119073 C59.296875,78.6239759 58.3345898,77.6606371 57.1484375,77.6606371 Z" id="Path"></path>
                        <path d="M50.9250586,77.6599918 L35.6636328,77.6599918 C34.4770508,77.6599918 33.5151953,78.6233305 33.5151953,79.8112619 C33.5151953,80.9991933 34.4770508,81.962532 35.6636328,81.962532 L50.9250586,81.962532 C52.1116406,81.962532 53.0734961,80.9991933 53.0734961,79.8112619 C53.0734961,78.6233305 52.1118555,77.6599918 50.9250586,77.6599918 Z" id="Path"></path>
                    </g>
                </g>
                <g id="pizzeria" transform="translate(205.000000, 701.000000)">
                    <g id="Group" transform="translate(2.000000, 2.000000)">
                        <polygon id="Path" fill="#54BA9D" points="9.89068154 8.82031044 52.8927099 8.82031044 95.8947383 8.82031044 95.8947383 0.21493012 9.89068154 0.21493012"></polygon>
                        <g transform="translate(0.000000, 8.605811)" fill="#FF9D21" id="Path">
                            <polygon points="52.8927099 17.4265513 52.8927099 0.214499829 9.89068154 0.214499829 0.000215010142 17.4265513"></polygon>
                            <polygon points="52.8927099 0.214499829 52.8927099 17.4265513 105.785205 17.4265513 95.8947383 0.214499829"></polygon>
                            <polygon points="105.785205 17.4265513 52.8927099 17.4265513 52.8927099 26.0330074 55.9636998 26.0330074 65.1786045 26.0330074 74.3937241 26.0330074 95.8947383 26.0330074 105.785205 26.0330074"></polygon>
                            <polygon points="52.8927099 26.0330074 52.8927099 17.4265513 0.000215010142 17.4265513 0.000215010142 26.0330074 9.89025152 26.0330074 19.1051562 26.0330074 28.3194158 26.0330074 37.5345355 26.0330074 46.7494402 26.0330074"></polygon>
                        </g>
                        <path d="M46.7494402,34.638818 L37.5345355,34.638818 L28.3194158,34.638818 L19.1051562,34.638818 L9.89025152,34.638818 L9.89025152,94.8794923 L57.8815903,94.8794923 L74.3937241,94.8786317 L74.3937241,73.3649658 L74.3937241,51.8504392 L74.3937241,34.638818 L65.1786045,34.638818 L55.9639148,34.638818 L52.8927099,34.638818 L46.7494402,34.638818 L46.7494402,34.638818 Z M26.1260974,72.1960815 C29.192572,60.7454051 38.1314037,51.801171 49.5744584,48.7327692 L51.2442272,54.9668184 L54.293931,66.3553179 L58.1578783,80.7840351 L43.142,76.7578066 L32.3570913,73.8664694 L26.1260974,72.1960815 Z" id="Shape" fill="#FFDAAE" fill-rule="nonzero"></path>
                        <path d="M49.5742434,48.7329843 C38.1311886,51.8013861 29.192357,60.7456202 26.1258824,72.1962967 L32.3566613,73.8666845 C34.8266978,64.6431918 42.0267424,57.4392678 51.2440122,54.9670335 L49.5742434,48.7329843 Z" id="Path" fill="#BF9A94"></path>
                        <path d="M51.2440122,54.9668184 C42.0267424,57.4388375 34.8266978,64.6429767 32.3566613,73.8664694 L43.14157,76.7578066 L58.1574483,80.7840351 L54.293501,66.3553179 L51.2440122,54.9668184 Z" id="Path" fill="#FF5A5A"></path>
                        <g transform="translate(74.393509, 34.638388)" fill="#96C8EB">
                            <rect id="Rectangle" x="0.000215010142" y="0.000215145265" width="21.5010142" height="17.2116212"></rect>
                            <polygon id="Path" points="21.5012292 17.2118364 0.000215010142 17.2118364 0.000215010142 38.7263629 0.000215010142 60.2400288 20.8129817 60.2408894 21.5012292 60.2408894"></polygon>
                        </g>
                    </g>
                    <g id="Group" fill="#000001">
                        <path d="M109.784503,28.05 C109.784074,28.0030714 109.781072,27.9565714 109.777427,27.9096429 C109.775712,27.885 109.774854,27.8603571 109.772066,27.8357143 C109.767563,27.7930714 109.759844,27.7506429 109.752768,27.7077857 C109.747836,27.6795 109.743977,27.6507857 109.738187,27.6229286 C109.730682,27.5886429 109.720819,27.5545714 109.711598,27.5202857 C109.702164,27.4849286 109.693372,27.4493571 109.682437,27.4146429 C109.67386,27.3885 109.663353,27.3627857 109.653918,27.3368571 C109.63848,27.2952857 109.623255,27.2535 109.605673,27.2134286 C109.596238,27.1917857 109.585088,27.1707857 109.574581,27.1493571 C109.553996,27.1060714 109.532982,27.063 109.509181,27.0212143 C109.50575,27.0152143 109.503606,27.0087857 109.499961,27.003 L99.9222417,10.356 L99.9222417,2.35692857 C99.9222417,1.17364286 98.9620468,0.214071429 97.7779922,0.214071429 L12.0080117,0.214071429 C10.8235283,0.214071429 9.86376218,1.17364286 9.86376218,2.35692857 L9.86376218,10.356 L0.28582846,27.0032143 C0.283255361,27.0077143 0.281325536,27.0124286 0.278966862,27.0169286 C0.251520468,27.0651429 0.227076023,27.1146429 0.203274854,27.1647857 C0.19662768,27.1793571 0.188908382,27.1939286 0.182261209,27.2085 C0.160818713,27.2569286 0.142378168,27.3064286 0.124795322,27.3565714 C0.118362573,27.3743571 0.1108577,27.3919286 0.105068226,27.4099286 C0.0909161793,27.4532143 0.0797660819,27.4977857 0.0681871345,27.5423571 C0.0619688109,27.5674286 0.0544639376,27.5925 0.0488888889,27.6177857 C0.0409551657,27.6546429 0.0355945419,27.6923571 0.0295906433,27.7298571 C0.0242300195,27.7632857 0.017797271,27.7969286 0.0141520468,27.8303571 C0.0105068226,27.8627143 0.0092202729,27.8959286 0.00707602339,27.9287143 C0.00450292398,27.9675 0.00171539961,28.0058571 0.00128654971,28.0444286 C0.00128654971,28.0534286 1.56125113e-17,28.0622143 1.56125113e-17,28.0712143 L1.56125113e-17,36.6424286 C1.56125113e-17,37.8257143 0.959766082,38.7852857 2.14424951,38.7852857 L9.86354776,38.7852857 L9.86354776,94.4995714 L8.35549708,94.4995714 C7.17122807,94.4995714 6.21124756,95.4591429 6.21124756,96.6424286 C6.21124756,97.8257143 7.17122807,98.7852857 8.35549708,98.7852857 L11.9910721,98.7852857 C11.9966472,98.7852857 12.0020078,98.7861429 12.0077973,98.7861429 L97.0914035,98.7861429 L97.7779922,98.7861429 L101.430078,98.7861429 C102.614133,98.7861429 103.574327,97.8265714 103.574327,96.6432857 C103.574327,95.4597857 102.614133,94.5004286 101.430078,94.5004286 L99.9222417,94.5004286 L99.9222417,38.7850714 L107.64154,38.7850714 C108.825595,38.7850714 109.785789,37.8255 109.785789,36.6422143 L109.785789,28.071 C109.785789,28.0639286 109.784503,28.0572857 109.784503,28.05 Z M13.24846,13.0707857 L52.7491813,13.0707857 L52.7491813,25.9281429 L5.85101365,25.9281429 L13.24846,13.0707857 Z M57.0376803,13.0707857 L96.5375439,13.0707857 L103.935205,25.9281429 L57.0376803,25.9281429 L57.0376803,13.0707857 Z M14.1522612,4.49978571 L95.6337427,4.49978571 L95.6337427,8.78507143 L14.1522612,8.78507143 L14.1522612,4.49978571 Z M4.28871345,30.2140714 L52.7491813,30.2140714 L52.7491813,34.4995714 L4.28871345,34.4995714 L4.28871345,30.2140714 Z M19.0531579,38.7850714 L19.0531579,40.9277143 C19.0531579,42.111 20.0133528,43.0705714 21.1974074,43.0705714 C22.3816764,43.0705714 23.3416569,42.111 23.3416569,40.9277143 L23.3416569,38.7850714 L28.2425536,38.7850714 L28.2425536,40.9277143 C28.2425536,42.111 29.2027485,43.0705714 30.3868031,43.0705714 C31.5710721,43.0705714 32.5310526,42.111 32.5310526,40.9277143 L32.5310526,38.7850714 L37.4321637,38.7850714 L37.4321637,40.9277143 C37.4321637,42.111 38.3921442,43.0705714 39.5764133,43.0705714 C40.7606823,43.0705714 41.7206628,42.111 41.7206628,40.9277143 L41.7206628,38.7850714 L46.6222027,38.7850714 L46.6222027,40.9277143 C46.6222027,42.111 47.5821832,43.0705714 48.7664522,43.0705714 C49.9505068,43.0705714 50.9107018,42.111 50.9107018,40.9277143 L50.9107018,38.7850714 L55.811384,38.7850714 L55.811384,40.9277143 C55.811384,42.111 56.7715789,43.0705714 57.9556335,43.0705714 C59.1399025,43.0705714 60.099883,42.111 60.099883,40.9277143 L60.099883,38.7850714 L65.0009942,38.7850714 L65.0009942,40.9277143 C65.0009942,42.111 65.9609747,43.0705714 67.1452437,43.0705714 C68.3295127,43.0705714 69.2894932,42.111 69.2894932,40.9277143 L69.2894932,38.7850714 L74.1910331,38.7850714 L74.1910331,94.5002143 L14.1522612,94.5002143 L14.1522612,38.7850714 L19.0531579,38.7850714 Z M78.4801754,94.5002143 L78.4801754,77.3565 L80.624425,77.3565 C81.808694,77.3565 82.7686745,76.3969286 82.7686745,75.2136429 C82.7686745,74.0303571 81.808694,73.0707857 80.624425,73.0707857 L78.4801754,73.0707857 L78.4801754,55.9279286 L95.6337427,55.9287857 L95.6337427,94.5002143 L78.4801754,94.5002143 Z M95.6337427,51.6430714 L78.4801754,51.6422143 L78.4801754,38.7850714 L95.6337427,38.7850714 L95.6337427,51.6430714 Z M105.49729,34.4993571 L57.0376803,34.4993571 L57.0376803,30.2138571 L105.49729,30.2138571 L105.49729,34.4993571 Z" id="Shape" fill-rule="nonzero"></path>
                        <path d="M2.19506823,94.4993571 L2.14446394,94.4993571 C0.959980507,94.4993571 0.000214424951,95.4589286 0.000214424951,96.6422143 C0.000214424951,97.8255 0.959980507,98.7850714 2.14446394,98.7850714 L2.19506823,98.7850714 C3.37912281,98.7850714 4.33931774,97.8255 4.33931774,96.6422143 C4.33931774,95.4589286 3.37933723,94.4993571 2.19506823,94.4993571 Z" id="Path"></path>
                        <path d="M107.64154,94.5002143 L107.590936,94.5002143 C106.406667,94.5002143 105.446686,95.4595714 105.446686,96.6430714 C105.446686,97.8263571 106.406667,98.7859286 107.590936,98.7859286 L107.64154,98.7859286 C108.825595,98.7859286 109.785789,97.8263571 109.785789,96.6430714 C109.785789,95.4595714 108.825595,94.5002143 107.64154,94.5002143 Z" id="Path"></path>
                        <path d="M27.6445224,76.1196429 L33.8581287,77.7842143 C33.8624172,77.7852857 33.8669201,77.7857143 33.8712086,77.7867857 L59.5889084,84.6743571 C59.7722417,84.7234286 59.9587914,84.7474286 60.1438402,84.7474286 C60.1517739,84.7474286 60.159922,84.7474286 60.1680702,84.7474286 C61.3431189,84.7367143 62.2923782,83.7814286 62.2923782,82.6045714 C62.2923782,82.3628571 62.2524951,82.1303571 62.1785185,81.9137143 L55.3209942,56.3359286 C55.3205653,56.3335714 55.3197076,56.3314286 55.3188499,56.3292857 L53.6553411,50.1267857 C53.3487135,48.9835714 52.1730214,48.3049286 51.0292788,48.6117857 C38.9161988,51.8558571 29.3747173,61.3907143 26.1289669,73.4955 C25.8221248,74.6380714 26.5007797,75.8134286 27.6445224,76.1196429 Z M47.2697661,76.938 L47.1155945,71.0957143 C47.0845029,69.9126429 46.1069396,68.9742857 44.9153801,69.0100714 C43.7317544,69.0413571 42.7972904,70.0253571 42.8285965,71.2086429 L42.9493177,75.7808571 L37.1308967,74.2225714 C39.6047173,67.452 44.9827096,62.0777143 51.7578947,59.6057143 L53.8774854,67.512 L51.0318519,70.0515 C50.1486355,70.8396429 50.0718713,72.1943571 50.8605263,73.077 C51.28423,73.5512143 51.8711111,73.7927143 52.4607797,73.7927143 C52.9689669,73.7927143 53.4792982,73.6131429 53.8879922,73.2482143 L55.1205068,72.1482857 L57.1112281,79.5732857 L47.2697661,76.938 Z M50.0873099,53.3779286 L50.6446004,55.4556429 C42.3986745,58.3422857 35.8657895,64.8705 32.9774854,73.1110714 L30.8984211,72.5539286 C33.9919298,63.5787857 41.105692,56.4696429 50.0873099,53.3779286 Z" id="Shape" fill-rule="nonzero"></path>
                    </g>
                </g>
                <g id="church" transform="translate(1124.000000, 690.000000)">
                    <g id="Group" transform="translate(2.000000, 15.000000)">
                        <path d="M79.597126,58.750648 L79.597126,41.4701563 L79.597126,32.8302344 L79.597126,26.350671 L79.597126,17.2798437 L53.5,0 L27.402439,17.2800597 L27.402439,26.3508869 L27.402439,32.8304504 L27.402439,41.4703722 L27.402439,58.750864 L27.402439,84.6691176 L27.402439,93.3088235 L40.4512195,93.3088235 L40.4512195,71.7091268 C40.4512195,64.5813695 46.3227358,58.749784 53.500435,58.749784 C60.6772642,58.749784 66.548563,64.5815855 66.548563,71.7091268 L66.548563,93.3088235 L79.597126,93.3088235 L79.597126,84.6691176 L79.597126,58.750648 L79.597126,58.750648 Z M53.5,19.8708915 C57.1032033,19.8708915 60.0243902,22.7721048 60.0243902,26.3508869 C60.0243902,29.9292371 57.1032033,32.8304504 53.5,32.8304504 C49.8965793,32.8304504 46.9751748,29.9292371 46.9751748,26.3508869 C46.9751748,22.7718888 49.8965793,19.8708915 53.5,19.8708915 Z" id="Shape" fill="#FFDAAE" fill-rule="nonzero"></path>
                        <ellipse id="Oval" fill="#96C8EB" cx="53.5" cy="26.3511029" rx="6.52439024" ry="6.47977941"></ellipse>
                        <g transform="translate(40.451220, 58.534007)" fill="#986E62" id="Path">
                            <path d="M26.0973435,13.1751195 C26.0973435,6.04736213 20.2260447,0.215776654 13.0487805,0.215776654 L13.0487805,34.7748162 L26.0973435,34.7748162 L26.0973435,13.1751195 Z"></path>
                            <path d="M13.0487805,34.7748162 L13.0492154,0.215776654 C5.87151626,0.215776654 0,6.04757813 0,13.1751195 L0,34.7748162 L13.0487805,34.7748162 Z"></path>
                        </g>
                        <g transform="translate(9.134146, 58.534007)" fill="#96C8EB" id="Path">
                            <path d="M8.91710163,13.1755515 L8.91710163,4.53584559 C8.91710163,2.15971048 6.95978455,0.215776654 4.56707317,0.215776654 C2.17436179,0.215776654 0.217262195,2.15971048 0.217262195,4.53584559 L0.217262195,13.1755515 L8.91710163,13.1755515 Z"></path>
                            <path d="M79.8150407,4.53584559 L79.8150407,13.1755515 L88.5142276,13.1755515 L88.5142276,4.53584559 C88.5142276,2.15971048 86.5573455,0.215776654 84.1644167,0.215776654 C81.7719228,0.215776654 79.8150407,2.15971048 79.8150407,4.53584559 Z"></path>
                        </g>
                        <g transform="translate(0.000000, 41.254596)" fill="#BF9A94" fill-rule="nonzero" id="Shape">
                            <path d="M88.949187,30.4549632 L88.949187,21.8152574 C88.949187,19.4391222 90.9060691,17.4951884 93.298563,17.4951884 C95.6914919,17.4951884 97.648374,19.4391222 97.648374,21.8152574 L97.648374,30.4549632 L88.949187,30.4549632 L88.949187,30.4549632 Z M79.597126,0.215560662 L79.597126,17.4960524 L79.597126,43.4145221 L79.597126,52.0542279 L107,52.0542279 L107,0.215560662 L79.597126,0.215560662 Z"></path>
                            <path d="M27.402439,17.4960524 L27.402439,0.215560662 L0,0.215560662 L0,52.0542279 L27.402439,52.0542279 L27.402439,43.4145221 L27.402439,17.4960524 L27.402439,17.4960524 Z M13.7012195,17.4951884 C16.0939309,17.4951884 18.051248,19.4391222 18.051248,21.8152574 L18.051248,30.4549632 L9.35140854,30.4549632 L9.35140854,21.8152574 C9.35140854,19.4391222 11.3085081,17.4951884 13.7012195,17.4951884 Z"></path>
                        </g>
                        <g transform="translate(0.000000, 32.830882)" fill="#FF5A5A" id="Rectangle">
                            <rect x="0" y="0" width="27.402439" height="8.63970588"></rect>
                            <rect x="79.597561" y="0" width="27.402439" height="8.63970588"></rect>
                        </g>
                    </g>
                    <g id="Group" fill="#000001">
                        <path d="M11.5409648,97.9921875 L11.4900176,97.9921875 C10.2926484,97.9921875 9.32204883,98.9627871 9.32204883,100.160156 C9.32204883,101.357525 10.2926484,102.328125 11.4900176,102.328125 L11.5409648,102.328125 C12.7385508,102.328125 13.7089336,101.357525 13.7089336,100.160156 C13.7089336,98.9627871 12.7385508,97.9921875 11.5409648,97.9921875 Z" id="Path"></path>
                        <path d="M11.4900176,89.3203125 L20.162543,89.3203125 C21.3596953,89.3203125 22.3305117,88.3497129 22.3305117,87.1523437 L22.3305117,78.4804687 C22.3305117,74.8942148 19.4126426,71.9763457 15.8261719,71.9763457 C12.2397012,71.9763457 9.32204883,74.8942148 9.32204883,78.4804687 L9.32204883,87.1523437 C9.32204883,88.3497129 10.2926484,89.3203125 11.4900176,89.3203125 Z M13.6579863,78.4804687 C13.6579863,77.284834 14.6305371,76.3122832 15.8261719,76.3122832 C17.0218066,76.3122832 17.9945742,77.284834 17.9945742,78.4804687 L17.9945742,84.984375 L13.6579863,84.984375 L13.6579863,78.4804687 Z" id="Shape" fill-rule="nonzero"></path>
                        <path d="M99.5097656,97.9921875 L99.4586016,97.9921875 C98.2614492,97.9921875 97.2906328,98.9627871 97.2906328,100.160156 C97.2906328,101.357525 98.2614492,102.328125 99.4586016,102.328125 L99.5097656,102.328125 C100.707135,102.328125 101.677734,101.357525 101.677734,100.160156 C101.677734,98.9627871 100.707135,97.9921875 99.5097656,97.9921875 Z" id="Path"></path>
                        <path d="M90.8378906,89.3203125 L99.5097656,89.3203125 C100.707135,89.3203125 101.677734,88.3497129 101.677734,87.1523437 L101.677734,78.4804687 C101.677734,74.8942148 98.7598652,71.9763457 95.1736113,71.9763457 C91.5873574,71.9763457 88.6699219,74.893998 88.6699219,78.4804687 L88.6699219,87.1523437 C88.6699219,88.3497129 89.6405215,89.3203125 90.8378906,89.3203125 Z M93.0058594,78.4804687 C93.0058594,77.284834 93.9781934,76.3122832 95.1736113,76.3122832 C96.3692461,76.3122832 97.3417969,77.284834 97.3417969,78.4804687 L97.3417969,84.984375 L93.0058594,84.984375 L93.0058594,78.4804687 Z" id="Shape" fill-rule="nonzero"></path>
                        <path d="M53.3320313,50.0217598 L53.3320313,57.9456855 C53.3320313,59.1430547 54.3024141,60.1136543 55.5,60.1136543 C56.6971523,60.1136543 57.6679688,59.1430547 57.6679688,57.9456855 L57.6679688,50.0219766 C61.4038125,49.0570137 64.171875,45.6580723 64.171875,41.6247832 C64.171875,36.8428945 60.2818887,32.9526914 55.5004336,32.9526914 C50.7185449,32.9526914 46.8283418,36.8428945 46.8283418,41.6247832 C46.8283418,45.6576387 49.5959707,49.0565801 53.3320313,50.0217598 Z M55.5004336,37.2886289 C57.8910527,37.2886289 59.8359375,39.2337305 59.8359375,41.6247832 C59.8359375,44.0154023 57.8910527,45.9605039 55.5004336,45.9605039 C53.1093809,45.9605039 51.1642793,44.0156191 51.1642793,41.6247832 C51.1642793,39.2337305 53.1093809,37.2886289 55.5004336,37.2886289 Z" id="Shape" fill-rule="nonzero"></path>
                        <path d="M55.5,62.0065078 C54.3024141,62.0065078 53.3320313,62.9771074 53.3320313,64.1744766 L53.3320313,64.2256406 C53.3320313,65.4230098 54.3024141,66.3936094 55.5,66.3936094 C56.6971523,66.3936094 57.6679688,65.4230098 57.6679688,64.2256406 L57.6679688,64.1744766 C57.6679688,62.9773242 56.6971523,62.0065078 55.5,62.0065078 Z" id="Path"></path>
                        <path d="M108.832031,45.9602871 L83.6831602,45.9602871 L83.6831602,32.5199648 C83.6831602,31.7952129 83.3211094,31.1181563 82.7179805,30.7162148 L57.6679688,14.0154844 L57.6679688,8.6716582 L59.0043047,8.6716582 C60.201457,8.6716582 61.1722734,7.70105859 61.1722734,6.50368945 C61.1722734,5.30632031 60.201457,4.3357207 59.0043047,4.3357207 L57.6679688,4.3357207 L57.6679688,2.16796875 C57.6679688,0.970599609 56.6971523,0 55.5,0 C54.3024141,0 53.3320312,0.970599609 53.3320312,2.16796875 L53.3320312,4.3357207 L51.9956953,4.3357207 C50.7983262,4.3357207 49.8277266,5.30632031 49.8277266,6.50368945 C49.8277266,7.70105859 50.7983262,8.6716582 51.9956953,8.6716582 L53.3320312,8.6716582 L53.3320312,14.0154844 L28.2818027,30.7162148 C27.6788906,31.1181563 27.3164062,31.7952129 27.3164062,32.5199648 L27.3164062,45.9602871 L2.16796875,45.9602871 C0.970382813,45.9602871 0,46.9308867 0,48.1282559 L0,56.8003477 L0,108.832031 C0,110.0294 0.970382813,111 2.16796875,111 L29.484375,111 L42.4921875,111 L68.5075957,111 L81.5151914,111 L108.832031,111 C110.029184,111 111,110.0294 111,108.832031 L111,56.8003477 L111,48.1282559 C111,46.9308867 110.029184,45.9602871 108.832031,45.9602871 Z M106.664063,50.2962246 L106.664063,54.6321621 L83.6831602,54.6321621 L83.6831602,50.2962246 L106.664063,50.2962246 Z M4.3359375,50.2962246 L27.3164063,50.2962246 L27.3164063,54.6321621 L4.3359375,54.6321621 L4.3359375,50.2962246 Z M4.3359375,58.9683164 L27.3164063,58.9683164 L27.3164063,97.9921875 L17.7701895,97.9921875 C16.5728203,97.9921875 15.6022207,98.9627871 15.6022207,100.160156 C15.6022207,101.357525 16.5728203,102.328125 17.7701895,102.328125 L27.3164063,102.328125 L27.3164063,106.664063 L4.3359375,106.664063 L4.3359375,58.9683164 Z M31.6523438,76.3131504 L33.8203125,76.3131504 C35.0174648,76.3131504 35.9882812,75.3425508 35.9882812,74.1451816 C35.9882812,72.9478125 35.0174648,71.9772129 33.8203125,71.9772129 L31.6523438,71.9772129 L31.6523438,56.8003477 L31.6523438,48.1282559 L31.6523438,43.7925352 L33.8203125,43.7925352 C35.0174648,43.7925352 35.9882812,42.8219355 35.9882812,41.6245664 C35.9882812,40.4271973 35.0174648,39.4565977 33.8203125,39.4565977 L31.6523438,39.4565977 L31.6523438,33.6800449 L55.5,17.7810293 L79.3472227,33.6800449 L79.3472227,39.4565977 L77.1796875,39.4565977 C75.9823184,39.4565977 75.0117187,40.4271973 75.0117187,41.6245664 C75.0117187,42.8219355 75.9823184,43.7925352 77.1796875,43.7925352 L79.3472227,43.7925352 L79.3472227,48.1282559 L79.3472227,56.8003477 L79.3472227,71.9772129 L77.1796875,71.9772129 C75.9823184,71.9772129 75.0117187,72.9478125 75.0117187,74.1451816 C75.0117187,75.3425508 75.9823184,76.3131504 77.1796875,76.3131504 L79.3472227,76.3131504 L79.3472227,106.664062 L70.6755645,106.664062 L70.6755645,87.1519102 C70.6755645,78.7839844 63.8679258,71.9763457 55.5,71.9763457 C47.1320742,71.9763457 40.3242187,78.7839844 40.3242187,87.1519102 L40.3242187,106.664062 L31.6523438,106.664062 L31.6523438,76.3131504 Z M44.6601562,87.1519102 C44.6601562,81.9173496 48.3901465,77.5378359 53.3320313,76.5303809 L53.3320313,106.664063 L44.6601562,106.664063 L44.6601562,87.1519102 Z M57.6679688,106.664063 L57.6679688,76.5303809 C62.6096367,77.5374023 66.339627,81.9171328 66.339627,87.1519102 L66.339627,106.664063 L57.6679688,106.664063 Z M106.664063,106.664063 L83.6831602,106.664063 L83.6831602,102.328125 L93.2298105,102.328125 C94.4269629,102.328125 95.3977793,101.357525 95.3977793,100.160156 C95.3977793,98.9627871 94.4269629,97.9921875 93.2298105,97.9921875 L83.6831602,97.9921875 L83.6831602,58.9683164 L106.664063,58.9683164 L106.664063,106.664063 Z" id="Shape" fill-rule="nonzero"></path>
                    </g>
                </g>
                <g id="Group-2" transform="translate(665.000000, 745.000000)">
                    <g id="Lufkin-Sign">
                        <g id="Group-4">
                            <g id="Group-3">
                                <g id="trunk">
                                    <circle id="Oval" fill="#998269" cx="55.5" cy="55.5" r="48.5"></circle>
                                    <circle id="Oval" fill="#AA947D" cx="56" cy="57" r="37"></circle>
                                    <path d="M54.3428358,0 C50.2780235,0 46.8186327,2.93192756 43.0161099,3.79681817 C40.2468007,4.42648185 36.4525867,3.25797136 33.86697,4.30202909 C31.3918382,5.30146321 29.0094508,6.48185837 26.736201,7.82706934 C24.5752327,9.10590551 23.6203914,12.5482015 21.6709612,14.1107003 C19.1033095,16.1685434 15.014469,16.5663438 12.8710166,19.059211 C11.0028782,21.2318646 9.30832686,23.5574494 7.80847154,26.0146625 C5.93853664,29.0779943 6.08876919,34.2397565 4.86602443,37.6706162 C4.03267167,40.0087584 3.35920766,42.4226934 2.85865706,44.8991912 C2.4847599,46.7491646 2.20764934,48.6338951 2.03226574,50.5482251 C1.88517707,52.155796 1.80994852,53.784221 1.80994852,55.430361 C1.80994852,58.717035 -0.481715435,62.8372061 0.0922672266,65.9581673 C0.454037989,67.9249694 0.924497173,69.853875 1.49735702,71.7383812 C2.07291162,73.6320813 2.7519897,75.4807093 3.52785437,77.2779865 C4.45642178,79.4288889 8.1152244,80.6027811 9.3098988,82.5951464 C10.1472937,83.9917082 11.0471171,85.3463372 12.0060005,86.6554457 C13.0942321,88.1414788 14.2581413,89.5687614 15.4921142,90.9316872 C16.9443622,92.5356702 18.2674866,96.2506411 19.9043253,97.6671601 C21.7495582,99.2637433 23.7061744,100.734977 25.7609246,102.068303 C27.6279401,103.279643 29.8023823,102.17661 31.8216515,103.149584 C34.4876617,104.434251 37.2621358,108.266499 40.1536072,109.09596 C42.7032938,109.827428 44.7578194,109.626285 47.4492052,109.970492 C49.6764197,110.255276 52.5362276,108.384897 54.8409162,108.384897 C58.3777812,108.384897 62.2514905,110.502612 65.5945577,109.843125 C68.5048924,109.269072 71.481473,107.88305 74.1995818,106.854464 C76.3450554,106.042494 77.8543423,103.206317 79.8565448,102.134902 C82.3406591,100.805388 84.7062042,99.284149 86.9336432,97.5909188 C88.7734867,96.1923389 92.3887241,96.1266368 94.0289312,94.5044904 C96.1119763,92.4441807 98.0248027,90.2127764 99.744505,87.8329257 C100.975559,86.1291562 100.23787,82.8992148 101.262775,81.051708 C102.55446,78.7232081 103.675253,76.2872977 104.608986,73.7607946 C105.467489,71.4374522 108.563538,70.0904473 109.091934,67.6267312 C109.490758,65.7671155 109.791896,63.8713973 109.989512,61.9451826 C110.173653,60.1496993 107.872109,57.2745042 107.872109,55.430361 C107.872109,52.2663459 107.594324,49.1671359 107.061437,46.1558276 C106.630725,43.7214869 108.088363,42.2811985 107.336751,39.9737771 C106.193277,36.4633124 105.007585,31.8134883 103.192668,28.6678608 C102.145082,26.8521959 98.6228136,25.4681916 97.373795,23.7964883 C96.1207342,22.1194034 95.2808691,17.3496113 93.8420949,15.8342028 C92.2014387,14.1059912 90.4451326,12.4883296 88.5857521,10.9933269 C86.1582276,9.04154886 83.0446636,10.4681587 80.293095,8.96216818 C77.6904115,7.53780077 74.9552359,6.32489093 72.1104736,5.34720801 C69.7568303,4.53748025 66.829878,1.41382817 64.3394759,0.939562256 C61.1021778,0.322680212 57.7602334,0 54.3428358,0 Z M54.8413654,99.8669467 C30.2640835,99.8669467 10.3401932,79.971772 10.3401932,55.4299126 C10.3401932,30.8880531 30.2640835,10.9926542 54.8413654,10.9926542 C79.4186472,10.9926542 99.3425375,30.8878289 99.3425375,55.4296883 C99.3425375,79.9715478 79.4186472,99.8669467 54.8413654,99.8669467 Z" id="Shape" fill="#564A3D" fill-rule="nonzero"></path>
                                    <circle id="Oval" fill="#B5A593" cx="56" cy="57" r="29"></circle>
                                    <circle id="Oval" fill="#C2B5A5" cx="54" cy="57" r="21"></circle>
                                    <circle id="Oval" fill="#AA947D" cx="55.5" cy="55.5" r="12.5"></circle>
                                    <circle id="Oval" fill="#C2B5A5" cx="56" cy="56" r="4"></circle>
                                    <path d="M107.859025,54.8675056 C107.859025,51.6708554 107.579536,48.5396788 107.043378,45.4973105 C106.610024,43.0378609 108.076607,41.5827167 107.320382,39.2514956 C106.169891,35.7048224 104.976922,31.0070379 103.150867,27.828965 C102.096852,25.9945726 98.5529675,24.596293 97.2962837,22.9073471 C96.2671224,21.52402 95.5147389,18.0591321 94.4855776,16 C96.5533897,22.115321 97.6751867,28.6683406 97.6751867,35.4841606 C97.6751867,68.9773972 70.5968355,96.1289873 37.1939438,96.1289873 C29.7365351,96.1289873 22.5958957,94.7721667 16,92.297085 C17.0648599,94.1013459 18.1197785,96.4697216 19.3513829,97.5399538 C21.2079401,99.1530047 23.176564,100.639413 25.2439242,101.986492 C27.1223977,103.210326 29.3101844,102.095917 31.3418459,103.078926 C34.0242175,104.376843 36.8157185,108.248619 39.7249349,109.086635 C42.290269,109.825648 44.3574032,109.622431 47.0653061,109.970188 C49.306189,110.257909 52.1835476,108.368238 54.5023801,108.368238 C58.0609509,108.368238 61.9584332,110.507796 65.3220169,109.841506 C68.2502123,109.261533 71.2450602,107.861215 73.9798501,106.82202 C76.1384905,106.001675 77.6570399,103.136244 79.6715299,102.053778 C82.1708893,100.71055 84.5509518,99.173621 86.7920606,97.462926 C88.6431952,96.0499206 92.2806194,95.9835408 93.9308924,94.3446629 C96.0267212,92.2631021 97.9512866,90.0086822 99.6815428,87.6042847 C100.920151,85.8829418 100.177935,82.6196853 101.20913,80.7531225 C102.508743,78.4006054 103.636414,75.9395699 104.575877,73.3870074 C105.439649,71.039701 108.554698,69.6788025 109.086337,67.1896745 C109.487608,65.3108779 109.790595,63.3956065 109.989423,61.4495239 C110.174921,59.6355212 107.859025,56.7306701 107.859025,54.8675056 Z" id="Path" fill="#564A3D" opacity="0.19"></path>
                                </g>
                                <text id="Welcome" transform="translate(41.838457, 20.897114) rotate(-30.000000) translate(-41.838457, -20.897114) " font-family="SignPainter-HouseScript, SignPainter" font-size="12" font-style="condensed" font-weight="normal" fill="#000000">
                                    <tspan x="23.8384573" y="24.3971143">Welcome</tspan>
                                </text>
                                <text id="To" transform="translate(55.580127, 24.397114) rotate(-30.000000) translate(-55.580127, -24.397114) " font-family="SignPainter-HouseScript, SignPainter" font-size="12" font-style="condensed" font-weight="normal" fill="#000000">
                                    <tspan x="50.580127" y="27.8971143">To</tspan>
                                </text>
                            </g>
                            <text id="Lufk-n" font-family="Palatino-Roman, Palatino" font-size="25" font-weight="normal" fill="#000000">
                                <tspan x="18" y="51">Lufk n</tspan>
                            </text>
                        </g>
                        <text id="Est.-1882" font-family="Palatino-Roman, Palatino" font-size="3" font-weight="normal" fill="#000000">
                            <tspan x="82" y="54">Est. 1882</tspan>
                        </text>
                    </g>
                    <g id="twot-trees" transform="translate(67.000000, 18.000000)">
                        <path d="M6.50002317,22 L6.50002317,22 C2.59823619,22 -0.424134716,18.4957643 0.0488440159,14.5202633 L1.20380011,4.81277488 C1.53069835,2.06529118 3.80340026,0 6.50002317,0 L6.50002317,0 C9.19664608,0 11.4692905,2.06529118 11.7961887,4.81277488 L12.9511448,14.5202633 C13.4241811,18.4957643 10.4018101,22 6.50002317,22 Z" id="Path" fill="#4FC16E"></path>
                        <path d="M6,22 L6,22 C6,17.5325718 6,3.49786003 6,0 L6,0 C8.90406579,0 11.3515377,2.06529118 11.7035832,4.81277488 L12.9473865,14.5202633 C13.456812,18.4957643 10.2019394,22 6,22 Z" id="Path" fill="#369151"></path>
                        <polygon id="Path" fill="#804D00" points="10.1861492 15.3043876 7.87441888 16.7622337 7.87441888 11.4343938 11 9.46335458 10.1861492 7.60683991 7.87441888 9.06468601 7.87441888 6 6.12558112 6 6.12558112 12.9134249 3.81390909 11.4556487 3 13.3120934 6.12558112 15.2832026 6.12558112 34 7.87441888 34 7.87441888 19.1320114 11 17.1609022"></polygon>
                    </g>
                </g>
                <g id="barbershop" transform="translate(950.000000, 701.000000)">
                    <g id="Group" transform="translate(2.000000, 2.000000)">
                        <polygon id="Path" fill="#54BA9D" points="9.91013821 8.83198413 53 8.83198413 96.0894309 8.83198413 96.0894309 0.214988662 9.91013821 0.214988662"></polygon>
                        <g transform="translate(0.000000, 8.616780)" fill="#986E62" id="Path">
                            <polygon points="53 17.4487642 53 0.215204082 9.91013821 0.215204082 0 17.4487642"></polygon>
                            <polygon points="53 0.215204082 53 17.4487642 105.999569 17.4487642 96.0894309 0.215204082"></polygon>
                            <polygon points="53 17.4487642 0 17.4487642 0 26.0653288 9.91013821 26.0653288 19.1435569 26.0653288 28.3767602 26.0653288 42.2276423 26.0653288 53 26.0653288"></polygon>
                            <polygon points="53 17.4487642 53 26.0653288 56.0772317 26.0653288 65.3108659 26.0653288 74.5447154 26.0653288 96.0894309 26.0653288 105.999569 26.0653288 105.999569 17.4487642"></polygon>
                        </g>
                        <path d="M65.3108659,34.6821088 L53,34.6821088 L42.2276423,34.6821088 L42.2276423,45.4535147 C45.7825203,45.4535147 48.690626,48.3614626 48.690626,51.9158844 L48.690626,54.0702948 L48.690626,68.1496825 L48.690626,77.7662245 C48.690626,81.3204308 45.7825203,84.2285941 42.2276423,84.2285941 L42.2276423,95 L57.9990203,95 L74.5447154,95 L74.5447154,73.4580499 L74.5447154,51.9158844 L74.5447154,34.6821088 L65.3108659,34.6821088 Z" id="Shape" fill="#FF9D21" fill-rule="nonzero"></path>
                        <path d="M48.690626,51.9158844 C48.690626,48.3614626 45.7825203,45.4535147 42.2272114,45.4535147 C38.6723333,45.4535147 35.7637967,48.3614626 35.7637967,51.9158844 L35.7637967,61.5324263 L48.690626,54.0702948 L48.690626,51.9158844 Z" id="Path" fill="#FF5A5A"></path>
                        <polygon id="Path" fill="#FFDAAE" points="48.690626 54.0702948 35.7637967 61.5324263 35.7637967 75.6122449 48.690626 68.1496825"></polygon>
                        <path d="M48.690626,68.1496825 L35.7637967,75.6122449 L35.7637967,77.7664399 C35.7637967,81.3206463 38.6723333,84.2288095 42.2276423,84.2288095 C45.7825203,84.2288095 48.690626,81.3208617 48.690626,77.7664399 L48.690626,68.1496825 Z" id="Path" fill="#96C8EB"></path>
                        <path d="M35.7637967,75.6122449 L35.7637967,61.5324263 L35.7637967,51.9158844 C35.7637967,48.3614626 38.6723333,45.4535147 42.2276423,45.4535147 L42.2276423,34.6821088 L28.3767602,34.6821088 L19.1435569,34.6821088 L9.91013821,34.6821088 L9.91013821,95 L42.2276423,95 L42.2276423,84.2285941 C38.6723333,84.2285941 35.7637967,81.3206463 35.7637967,77.7662245 L35.7637967,75.6122449 Z" id="Shape" fill="#FF9D21" fill-rule="nonzero"></path>
                        <g transform="translate(74.544715, 34.467120)" fill="#96C8EB">
                            <rect id="Rectangle" x="0" y="0.215204082" width="21.5447154" height="17.2335601"></rect>
                            <polygon id="Path" points="21.5447154 17.4489796 0 17.4487642 0 38.9909297 0 60.532449 20.8550691 60.5328798 21.5447154 60.5328798"></polygon>
                        </g>
                    </g>
                    <g id="Group" fill="#000001">
                        <path d="M109.998281,28.3331169 C109.997852,28.2865801 109.994844,28.2398268 109.991191,28.19329 C109.989473,28.1675325 109.988613,28.1415584 109.98582,28.1162338 C109.981309,28.0751082 109.974004,28.0339827 109.967344,27.9928571 C109.961973,27.9619048 109.957676,27.9309524 109.951445,27.9006494 C109.944785,27.8690476 109.935547,27.8378788 109.927598,27.80671 C109.91707,27.7675325 109.907402,27.7281385 109.895371,27.6896104 C109.888281,27.6670996 109.879043,27.6452381 109.871094,27.6229437 C109.854766,27.5766234 109.838008,27.5305195 109.818242,27.4854978 C109.810723,27.4679654 109.801484,27.4508658 109.793535,27.4333333 C109.770977,27.3850649 109.747344,27.3372294 109.721348,27.2909091 C109.71877,27.2861472 109.716621,27.2809524 109.713828,27.275974 L100.117188,10.4601732 L100.117188,2.38008658 C100.117188,1.18463203 99.1551172,0.215584416 97.96875,0.215584416 L12.03125,0.215584416 C10.844668,0.215584416 9.8828125,1.18463203 9.8828125,2.38008658 L9.8828125,10.4608225 L0.285742188,27.2761905 C0.283164062,27.2811688 0.281230469,27.2861472 0.278222656,27.2911255 C0.252226563,27.3374459 0.229238281,27.3852814 0.206464844,27.4335498 C0.198085938,27.4510823 0.188847656,27.4681818 0.181328125,27.4857143 C0.161992188,27.5307359 0.144804688,27.5768398 0.128476563,27.6231602 C0.120527344,27.6454545 0.11171875,27.667316 0.104199219,27.6898268 C0.091953125,27.7281385 0.0825,27.7675325 0.0724023438,27.8069264 C0.0640234375,27.8383117 0.0552148438,27.8692641 0.0485546875,27.9008658 C0.0418945313,27.9313853 0.0375976563,27.9625541 0.03265625,27.9935065 C0.0255664063,28.0344156 0.0184765625,28.0753247 0.01375,28.1164502 C0.011171875,28.1419913 0.0098828125,28.1681818 0.00837890625,28.1939394 C0.00494140625,28.2404762 0.00171875,28.287013 0.0012890625,28.3335498 C0.0012890625,28.3406926 0.0004296875,28.347619 0.0004296875,28.3547619 L0.0004296875,37.012987 C0.0004296875,38.2084416 0.962285156,39.1774892 2.14886719,39.1774892 L9.8828125,39.1774892 L9.8828125,95.4545455 L8.37181641,95.4545455 C7.18544922,95.4545455 6.22337891,96.4235931 6.22337891,97.6190476 C6.22337891,98.8145022 7.18544922,99.7835498 8.37181641,99.7835498 L12.0228711,99.7835498 C12.0258789,99.7835498 12.0282422,99.7839827 12.03125,99.7839827 L97.2814648,99.7839827 L97.96875,99.7839827 L101.627754,99.7839827 C102.814336,99.7839827 103.776191,98.8149351 103.776191,97.6194805 C103.776191,96.424026 102.814336,95.4549784 101.627754,95.4549784 L100.117188,95.4549784 L100.117188,39.1770563 L107.851133,39.1770563 C109.0375,39.1770563 109.99957,38.2080087 109.99957,37.0125541 L109.99957,28.354329 C109.99957,28.3471861 109.998281,28.3402597 109.998281,28.3331169 Z M13.2736914,13.2032468 L52.8515625,13.2032468 L52.8515625,26.1898268 L5.86201172,26.1898268 L13.2736914,13.2032468 Z M57.1484375,13.2032468 L96.7258789,13.2032468 L104.137129,26.1898268 L57.1484375,26.1898268 L57.1484375,13.2032468 Z M14.1792578,4.54458874 L95.8198828,4.54458874 L95.8198828,8.87424242 L14.1792578,8.87424242 L14.1792578,4.54458874 L14.1792578,4.54458874 Z M4.296875,30.5188312 L52.8515625,30.5188312 L52.8515625,34.8480519 L4.296875,34.8480519 L4.296875,30.5188312 Z M58.0686133,43.5062771 C59.2551953,43.5062771 60.2170508,42.5372294 60.2170508,41.3417749 L60.2170508,39.1770563 L65.1277344,39.1770563 L65.1277344,41.3417749 C65.1277344,42.5372294 66.0900195,43.5062771 67.2761719,43.5062771 C68.4627539,43.5062771 69.4246094,42.5372294 69.4246094,41.3417749 L69.4246094,39.1770563 L74.3359375,39.1770563 L74.3359375,95.4545455 L46.40625,95.4545455 L46.40625,88.6865801 C50.1084375,87.7229437 52.8511328,84.3296537 52.8511328,80.3028139 L52.8511328,54.3287879 C52.8511328,50.3021645 50.1084375,46.9088745 46.40625,45.9452381 L46.40625,39.1770563 L55.9201758,39.1770563 L55.9201758,41.3417749 C55.9201758,42.5372294 56.8824609,43.5062771 58.0686133,43.5062771 Z M78.6328125,95.4545455 L78.6328125,78.1385281 L80.78125,78.1385281 C81.967832,78.1385281 82.9296875,77.1694805 82.9296875,75.974026 C82.9296875,74.7785714 81.967832,73.8095238 80.78125,73.8095238 L78.6328125,73.8095238 L78.6328125,56.49329 L95.8203125,56.49329 L95.8203125,95.4545455 L78.6328125,95.4545455 Z M44.2578125,50 C46.6268945,50 48.5542578,51.9417749 48.5542578,54.3287879 L48.5542578,55.2439394 L39.9605078,60.2424242 L39.9605078,54.3287879 C39.9605078,51.9417749 41.8883008,50 44.2578125,50 Z M39.9605078,65.2409091 L48.5542578,60.2424242 L48.5542578,69.3906926 L39.9605078,74.3896104 L39.9605078,65.2409091 Z M39.9605078,79.3880952 L48.5542578,74.3891775 L48.5542578,80.3028139 C48.5542578,82.6896104 46.6268945,84.6316017 44.2578125,84.6316017 L44.2573828,84.6316017 C41.8883008,84.6316017 39.9605078,82.6898268 39.9605078,80.3028139 L39.9605078,79.3880952 Z M19.0899414,39.1770563 L19.0899414,41.3417749 C19.0899414,42.5372294 20.0517969,43.5062771 21.2383789,43.5062771 C22.4245313,43.5062771 23.3868164,42.5372294 23.3868164,41.3417749 L23.3868164,39.1770563 L28.2972852,39.1770563 L28.2972852,41.3417749 C28.2972852,42.5372294 29.2595703,43.5062771 30.4457227,43.5062771 C31.6323047,43.5062771 32.5941602,42.5372294 32.5941602,41.3417749 L32.5941602,39.1770563 L42.109375,39.1770563 L42.109375,45.9450216 C38.4067578,46.9084416 35.6636328,50.3019481 35.6636328,54.3287879 L35.6636328,80.3028139 C35.6636328,84.3296537 38.4067578,87.7229437 42.109375,88.6865801 L42.109375,95.4545455 L14.1792578,95.4545455 L14.1792578,39.1770563 L19.0899414,39.1770563 Z M95.8203125,52.1645022 L78.6328125,52.1642857 L78.6328125,39.1770563 L95.8203125,39.1770563 L95.8203125,52.1645022 Z M105.702695,34.8480519 L57.1484375,34.8480519 L57.1484375,30.5188312 L105.702695,30.5188312 L105.702695,34.8480519 Z" id="Shape" fill-rule="nonzero"></path>
                        <path d="M2.19871094,95.4541126 L2.1484375,95.4541126 C0.961855469,95.4541126 0,96.4231602 0,97.6186147 C0,98.8140693 0.961855469,99.7831169 2.1484375,99.7831169 L2.19871094,99.7831169 C3.38507813,99.7831169 4.34714844,98.8140693 4.34714844,97.6186147 C4.34714844,96.4231602 3.38507813,95.4541126 2.19871094,95.4541126 Z" id="Path"></path>
                        <path d="M107.851133,95.4545455 L107.80043,95.4545455 C106.613848,95.4545455 105.651992,96.4235931 105.651992,97.6190476 C105.651992,98.8145022 106.613848,99.7835498 107.80043,99.7835498 L107.851133,99.7835498 C109.0375,99.7835498 109.99957,98.8145022 109.99957,97.6190476 C109.99957,96.4235931 109.0375,95.4545455 107.851133,95.4545455 Z" id="Path"></path>
                    </g>
                </g>
            </g>
        </g>
    </g>
</svg>